<?xml version="1.0" encoding="UTF-8" standalone="no"?>
<!DOCTYPE svg PUBLIC "-//W3C//DTD SVG 1.1//EN" "http://www.w3.org/Graphics/SVG/1.1/DTD/svg11.dtd">
<svg xmlns="http://www.w3.org/2000/svg" version="1.1" viewBox="0.00 0.00 500.00 500.00">
<g stroke-width="2.00" fill="none" stroke-linecap="butt">
<path stroke="#547575" vector-effect="non-scaling-stroke" d="
  M 221.89 187.83
  Q 221.85 186.76 219.28 186.95
  Q 219.09 186.96 218.22 186.97
  Q 216.93 186.98 216.99 187.95"
/>
<path stroke="#547575" vector-effect="non-scaling-stroke" d="
  M 183.47 176.85
  Q 179.54 174.87 175.28 176.84"
/>
<path stroke="#547575" vector-effect="non-scaling-stroke" d="
  M 174.04 177.19
  Q 171.04 178.26 170.07 181.07"
/>
<path stroke="#547575" vector-effect="non-scaling-stroke" d="
  M 169.80 181.99
  Q 167.56 186.78 169.81 191.73"
/>
<path stroke="#547575" vector-effect="non-scaling-stroke" d="
  M 171.74 152.06
  Q 174.60 150.56 176.53 147.92"
/>
<path stroke="#547575" vector-effect="non-scaling-stroke" d="
  M 249.92 299.20
  L 240.00 299.07
  Q 238.33 299.05 238.24 300.72
  Q 237.46 315.32 238.53 330.96"
/>
<path stroke="#547575" vector-effect="non-scaling-stroke" d="
  M 285.95 313.56
  Q 283.85 315.49 285.12 318.01"
/>
<path stroke="#428d90" vector-effect="non-scaling-stroke" d="
  M 207.04 133.25
  Q 217.99 130.61 230.26 131.25"
/>
<path stroke="#86999f" vector-effect="non-scaling-stroke" d="
  M 230.26 131.25
  Q 230.95 131.72 231.48 131.40
  A 0.47 0.46 52.4 0 0 231.57 130.68
  Q 220.77 119.15 204.74 120.06
  Q 204.07 120.10 204.27 120.74
  Q 206.34 127.27 203.92 133.67
  Q 203.73 134.17 204.25 134.03
  L 207.04 133.25"
/>
<path stroke="#a7e9e5" vector-effect="non-scaling-stroke" d="
  M 230.26 131.25
  Q 219.59 122.97 206.18 123.34
  A 0.34 0.34 0.0 0 0 205.88 123.81
  Q 207.84 128.21 207.04 133.25"
/>
<path stroke="#86999f" vector-effect="non-scaling-stroke" d="
  M 207.17 137.33
  L 201.43 139.15"
/>
<path stroke="#547575" vector-effect="non-scaling-stroke" d="
  M 201.43 139.15
  Q 197.59 139.76 194.50 141.78"
/>
<path stroke="#86999f" vector-effect="non-scaling-stroke" d="
  M 194.50 141.78
  Q 171.59 152.79 157.82 174.37
  C 148.22 189.42 147.56 206.83 152.32 223.73"
/>
<path stroke="#547575" vector-effect="non-scaling-stroke" d="
  M 152.32 223.73
  L 156.80 235.15
  A 0.29 0.29 0.0 0 0 157.35 234.99
  C 156.42 230.07 154.22 200.99 167.46 208.17
  Q 171.82 210.53 176.82 212.32
  A 0.31 0.31 0.0 0 0 177.13 211.80
  C 169.74 205.05 163.71 194.21 164.85 183.83
  C 166.08 172.58 176.75 170.85 185.86 172.99
  Q 186.50 173.14 186.50 172.48
  L 186.50 166.30
  Q 186.50 165.61 187.19 165.59
  L 189.43 165.52
  A 0.76 0.74 -3.8 0 1 190.19 166.17
  L 190.58 169.36"
/>
<path stroke="#86999f" vector-effect="non-scaling-stroke" d="
  M 190.58 169.36
  Q 190.00 173.88 192.25 174.69"
/>
<path stroke="#547575" vector-effect="non-scaling-stroke" d="
  M 192.25 174.69
  L 205.09 179.46
  Q 205.71 179.69 205.41 179.11
  Q 201.05 170.38 202.72 159.44
  Q 203.03 157.42 204.60 157.19
  Q 206.15 156.96 206.58 158.31
  Q 206.93 159.40 206.59 161.25"
/>
<path stroke="#86999f" vector-effect="non-scaling-stroke" d="
  M 206.59 161.25
  Q 205.41 167.66 207.77 174.04"
/>
<path stroke="#547575" vector-effect="non-scaling-stroke" d="
  M 207.77 174.04
  Q 208.59 177.35 211.99 180.77
  C 214.23 183.01 224.73 183.56 227.76 183.98
  Q 229.57 184.23 228.28 182.94
  Q 214.07 168.66 223.36 150.06
  Q 223.74 149.29 224.87 148.28
  Q 225.24 147.95 225.73 148.00
  Q 228.73 148.30 227.39 151.68"
/>
<path stroke="#86999f" vector-effect="non-scaling-stroke" d="
  M 227.39 151.68
  Q 221.14 162.37 226.11 173.07"
/>
<path stroke="#547575" vector-effect="non-scaling-stroke" d="
  M 226.11 173.07
  Q 229.00 179.35 235.69 183.84
  Q 236.12 184.13 236.64 184.11
  Q 258.83 183.56 278.78 173.99
  A 0.75 0.75 0.0 0 0 279.20 173.19
  Q 277.55 163.02 272.11 155.20"
/>
<path stroke="#86999f" vector-effect="non-scaling-stroke" d="
  M 272.11 155.20
  C 264.23 143.91 252.11 138.36 238.77 136.19"
/>
<path stroke="#547575" vector-effect="non-scaling-stroke" d="
  M 238.77 136.19
  L 230.23 135.27"
/>
<path stroke="#86999f" vector-effect="non-scaling-stroke" d="
  M 230.23 135.27
  L 220.53 135.28"
/>
<path stroke="#547575" vector-effect="non-scaling-stroke" d="
  M 220.53 135.28
  Q 213.79 135.10 207.17 137.33"
/>
<path stroke="#b9d1ca" vector-effect="non-scaling-stroke" d="
  M 220.53 135.28
  L 207.17 137.33"
/>
<path stroke="#b9d1ca" vector-effect="non-scaling-stroke" d="
  M 230.23 135.27
  L 238.77 136.19"
/>
<path stroke="#b9d1ca" vector-effect="non-scaling-stroke" d="
  M 272.11 155.20
  Q 271.04 156.09 270.52 155.48
  C 254.51 136.79 222.29 135.84 201.00 143.59
  C 181.81 150.57 160.87 169.84 154.24 189.42
  C 151.04 198.88 149.85 212.15 153.73 221.88
  Q 154.08 222.76 153.89 223.20
  Q 153.57 223.93 152.32 223.73"
/>
<path stroke="#b9d1ca" vector-effect="non-scaling-stroke" d="
  M 194.50 141.78
  L 201.43 139.15"
/>
<path stroke="#b9d1ca" vector-effect="non-scaling-stroke" d="
  M 226.11 173.07
  Q 225.04 163.20 229.07 155.80
  C 230.17 153.80 229.89 152.00 227.39 151.68"
/>
<path stroke="#b9d1ca" vector-effect="non-scaling-stroke" d="
  M 207.77 174.04
  Q 208.34 167.73 208.61 162.49
  Q 208.69 160.87 206.59 161.25"
/>
<path stroke="#b9d1ca" vector-effect="non-scaling-stroke" d="
  M 192.25 174.69
  Q 193.34 169.72 190.58 169.36"
/>
<path stroke="#428d90" vector-effect="non-scaling-stroke" d="
  M 198.24 190.50
  Q 203.82 190.21 208.77 187.58"
/>
<path stroke="#86999f" vector-effect="non-scaling-stroke" d="
  M 208.77 187.58
  L 211.31 186.17
  Q 211.88 185.86 211.26 185.67
  L 200.16 182.25
  A 0.64 0.63 -66.9 0 0 199.42 182.55
  Q 197.04 186.74 193.33 189.86
  A 0.51 0.51 0.0 0 0 193.69 190.76
  L 198.24 190.50"
/>
<path stroke="#a7e9e5" vector-effect="non-scaling-stroke" d="
  M 208.77 187.58
  Q 205.58 187.30 202.90 185.80
  A 1.33 1.32 31.6 0 0 201.16 186.21
  L 198.24 190.50"
/>
<path stroke="#b9d1ca" vector-effect="non-scaling-stroke" d="
  M 244.08 164.16
  Q 244.91 167.37 247.61 168.96
  C 254.99 173.30 264.27 162.25 258.55 157.27"
/>
<path stroke="#547575" vector-effect="non-scaling-stroke" d="
  M 258.55 157.27
  C 256.16 145.23 237.16 152.56 244.08 164.16"
/>
<path stroke="#86999f" vector-effect="non-scaling-stroke" d="
  M 258.55 157.27
  C 256.97 164.76 251.24 168.60 244.08 164.16"
/>
<path stroke="#428d90" vector-effect="non-scaling-stroke" d="
  M 327.04 179.96
  Q 331.37 186.19 333.35 191.80"
/>
<path stroke="#86999f" vector-effect="non-scaling-stroke" d="
  M 333.35 191.80
  C 334.14 195.46 335.37 199.64 334.98 203.15
  C 333.58 215.64 324.69 216.04 313.77 214.78
  Q 313.21 214.72 313.31 215.28
  Q 314.11 219.73 312.65 222.16"
/>
<path stroke="#428d90" vector-effect="non-scaling-stroke" d="
  M 312.65 222.16
  Q 310.82 222.43 309.98 221.97
  Q 309.54 221.73 309.51 221.23
  L 309.02 213.78"
/>
<path stroke="#86999f" vector-effect="non-scaling-stroke" d="
  M 309.02 213.78
  L 294.83 208.19
  A 0.47 0.47 0.0 0 0 294.25 208.85
  L 295.54 211.24"
/>
<path stroke="#428d90" vector-effect="non-scaling-stroke" d="
  M 295.54 211.24
  Q 295.48 212.88 296.76 213.82"
/>
<path stroke="#86999f" vector-effect="non-scaling-stroke" d="
  M 296.76 213.82
  Q 298.03 221.67 297.09 228.13"
/>
<path stroke="#428d90" vector-effect="non-scaling-stroke" d="
  M 297.09 228.13
  Q 295.44 231.61 293.49 230.05
  A 1.25 1.24 23.4 0 1 293.02 228.88
  C 293.97 222.81 293.59 215.49 290.40 210.06"
/>
<path stroke="#86999f" vector-effect="non-scaling-stroke" d="
  M 290.40 210.06
  C 286.66 203.82 279.01 204.09 271.25 203.83
  Q 270.92 203.82 271.14 204.07
  L 274.09 207.45"
/>
<path stroke="#428d90" vector-effect="non-scaling-stroke" d="
  M 274.09 207.45
  L 278.57 215.28"
/>
<path stroke="#86999f" vector-effect="non-scaling-stroke" d="
  M 278.57 215.28
  Q 282.05 227.29 275.66 238.80"
/>
<path stroke="#428d90" vector-effect="non-scaling-stroke" d="
  M 275.66 238.80
  L 274.09 239.39
  A 1.56 1.56 0.0 0 1 272.07 237.43
  C 272.85 235.11 274.16 232.94 274.77 230.81
  Q 277.78 220.29 271.87 211.22"
/>
<path stroke="#86999f" vector-effect="non-scaling-stroke" d="
  M 271.87 211.22
  L 263.98 203.55
  Q 263.62 203.19 263.11 203.27
  L 261.28 203.54"
/>
<path stroke="#547575" vector-effect="non-scaling-stroke" d="
  M 261.28 203.54
  L 254.23 203.94"
/>
<path stroke="#86999f" vector-effect="non-scaling-stroke" d="
  M 254.23 203.94
  Q 236.68 205.93 220.91 213.81
  Q 220.44 214.04 220.48 214.56
  Q 220.95 220.24 224.23 226.14"
/>
<path stroke="#428d90" vector-effect="non-scaling-stroke" d="
  M 224.23 226.14
  Q 232.09 243.23 251.26 249.03
  C 285.58 259.41 320.25 245.50 339.98 216.27
  C 352.27 198.06 352.97 178.69 345.36 158.46"
/>
<path stroke="#86999f" vector-effect="non-scaling-stroke" d="
  M 345.36 158.46
  L 343.03 152.82
  A 0.28 0.28 0.0 0 0 342.50 152.96
  C 343.07 158.63 346.18 187.14 331.46 178.93
  Q 327.85 176.91 323.82 175.74
  Q 323.07 175.52 323.49 176.18
  Q 325.11 178.74 327.04 179.96"
/>
<path stroke="#a7e9e5" vector-effect="non-scaling-stroke" d="
  M 345.36 158.46
  C 346.11 165.36 346.72 184.15 336.75 184.32
  A 1.50 1.48 -32.5 0 1 336.14 184.19
  L 327.04 179.96"
/>
<path stroke="#a7e9e5" vector-effect="non-scaling-stroke" d="
  M 224.23 226.14
  L 222.82 218.13
  A 0.89 0.88 -17.8 0 1 223.31 217.19
  Q 241.39 208.55 261.40 207.38
  C 266.85 207.06 267.64 208.61 271.10 212.26
  Q 271.58 212.76 271.71 212.08
  L 271.87 211.22"
/>
<path stroke="#a7e9e5" vector-effect="non-scaling-stroke" d="
  M 275.66 238.80
  Q 273.73 240.81 274.22 242.21
  Q 274.68 243.50 276.14 243.35
  Q 277.45 243.21 278.20 241.55
  Q 283.75 229.38 280.73 217.75
  Q 280.38 216.39 278.57 215.28"
/>
<path stroke="#a7e9e5" vector-effect="non-scaling-stroke" d="
  M 274.09 207.45
  C 277.50 207.64 286.22 208.21 288.79 210.04
  Q 290.41 211.20 290.40 210.06"
/>
<path stroke="#a7e9e5" vector-effect="non-scaling-stroke" d="
  M 297.09 228.13
  Q 297.17 230.13 295.91 230.85
  A 1.93 1.93 0.0 0 0 296.09 234.29
  C 297.56 234.94 298.74 233.75 299.03 232.31
  Q 301.14 222.03 296.76 213.82"
/>
<path stroke="#a7e9e5" vector-effect="non-scaling-stroke" d="
  M 295.54 211.24
  L 308.03 216.07
  Q 308.60 216.29 308.70 215.68
  L 309.02 213.78"
/>
<path stroke="#a7e9e5" vector-effect="non-scaling-stroke" d="
  M 312.65 222.16
  C 309.28 224.88 313.94 227.75 315.45 224.69
  C 316.14 223.28 315.49 220.54 315.50 218.88
  Q 315.50 218.28 316.09 218.41
  C 335.63 222.75 340.18 209.37 335.28 193.54
  Q 334.68 191.59 333.35 191.80"
/>
<path stroke="#b9d1ca" vector-effect="non-scaling-stroke" d="
  M 254.23 203.94
  Q 257.48 204.67 261.28 203.54"
/>
<path stroke="#547575" vector-effect="non-scaling-stroke" d="
  M 291.80 203.04
  Q 292.90 204.51 295.69 204.22
  Q 296.21 204.16 296.70 204.36
  L 299.49 205.45
  Q 299.96 205.63 300.25 205.22
  L 303.63 200.35"
/>
<path stroke="#86999f" vector-effect="non-scaling-stroke" d="
  M 303.63 200.35
  L 306.45 197.68
  Q 306.92 197.24 306.28 197.17
  Q 296.64 196.11 288.56 201.44
  Q 287.87 201.90 288.66 202.13
  L 291.80 203.04"
/>
<path stroke="#b9d1ca" vector-effect="non-scaling-stroke" d="
  M 303.63 200.35
  L 291.80 203.04"
/>
<path stroke="#547575" vector-effect="non-scaling-stroke" d="
  M 271.57 260.29
  Q 282.12 268.33 295.51 267.88
  Q 295.90 267.87 295.73 267.52
  Q 293.51 262.72 295.21 256.58"
/>
<path stroke="#86999f" vector-effect="non-scaling-stroke" d="
  M 295.21 256.58
  L 295.42 254.52
  Q 295.49 253.87 294.84 254.01
  Q 281.81 257.03 268.43 256.37
  A 0.26 0.26 0.0 0 0 268.23 256.81
  L 271.57 260.29"
/>
<path stroke="#b9d1ca" vector-effect="non-scaling-stroke" d="
  M 295.21 256.58
  Q 293.90 258.82 290.94 259.19
  Q 279.31 260.62 271.57 260.29"
/>
<path stroke="#86999f" vector-effect="non-scaling-stroke" d="
  M 253.7666 156.5379
  A 4.02 3.10 -33.9 0 0 248.7010 156.2070
  A 4.02 3.10 -33.9 0 0 247.0934 161.0221
  A 4.02 3.10 -33.9 0 0 252.1590 161.3530
  A 4.02 3.10 -33.9 0 0 253.7666 156.5379"
/>
<path stroke="#a7e9e5" vector-effect="non-scaling-stroke" d="
  M 243.86 235.32
  C 247.68 244.85 260.84 239.49 259.06 229.25
  Q 258.88 228.22 257.81 227.56
  Q 257.34 227.28 257.28 227.83
  L 257.02 230.29"
/>
<path stroke="#428d90" vector-effect="non-scaling-stroke" d="
  M 257.02 230.29
  C 258.57 213.63 233.50 224.27 243.86 235.32"
/>
<path stroke="#86999f" vector-effect="non-scaling-stroke" d="
  M 257.02 230.29
  Q 253.49 239.16 243.86 235.32"
/>
<path stroke="#86999f" vector-effect="non-scaling-stroke" d="
  M 252.7127 226.6903
  A 4.01 3.04 -34.3 0 0 247.6869 226.4387
  A 4.01 3.04 -34.3 0 0 246.0873 231.2097
  A 4.01 3.04 -34.3 0 0 251.1131 231.4613
  A 4.01 3.04 -34.3 0 0 252.7127 226.6903"
/>
</g>
<path fill="#213d4a" d="
  M 221.89 187.83
  Q 221.85 186.76 219.28 186.95
  Q 219.09 186.96 218.22 186.97
  Q 216.93 186.98 216.99 187.95
  Q 215.35 188.59 213.95 189.53
  C 207.98 193.52 198.97 196.05 191.85 194.79
  Q 189.25 194.33 186.72 193.87
  A 1.72 1.71 15.0 0 1 185.41 191.61
  Q 185.97 190.05 187.65 189.16
  C 190.44 187.70 192.54 185.10 194.65 182.95
  A 1.92 1.91 36.4 0 0 194.19 179.93
  C 192.73 179.13 190.94 178.91 189.32 178.22
  Q 186.36 176.96 183.47 176.85
  Q 179.54 174.87 175.28 176.84
  Q 174.89 177.11 174.04 177.19
  Q 171.04 178.26 170.07 181.07
  Q 170.03 182.59 169.80 181.99
  Q 167.56 186.78 169.81 191.73
  C 171.69 201.81 177.41 206.94 185.70 212.20
  Q 186.11 212.46 186.04 212.95
  C 184.81 221.13 171.42 215.19 167.02 212.74
  C 156.47 206.86 162.16 240.86 162.82 244.44
  A 2.04 2.03 -8.7 0 1 161.06 246.82
  C 155.85 247.44 148.71 226.35 148.23 224.49
  C 144.40 209.66 143.94 189.74 152.10 175.88
  Q 160.10 162.30 171.74 152.06
  Q 174.60 150.56 176.53 147.92
  Q 186.00 140.75 197.24 136.05
  C 200.52 134.67 201.39 125.75 200.74 122.47
  Q 200.65 122.00 200.25 121.75
  Q 197.52 120.05 198.06 116.81
  A 0.83 0.83 0.0 0 1 198.83 116.12
  C 208.09 115.47 215.91 115.40 224.32 119.58
  C 229.53 122.17 233.55 126.93 237.66 131.36
  Q 238.01 131.74 238.51 131.81
  C 249.60 133.47 260.53 137.20 268.69 144.92
  Q 281.40 156.94 283.66 174.91
  A 2.27 2.25 -18.0 0 1 282.50 177.17
  Q 269.62 184.18 255.30 186.65
  C 253.55 186.96 251.17 186.71 249.18 187.85
  Q 248.73 188.10 248.21 188.01
  Q 246.21 187.62 244.59 188.62
  Q 244.12 188.91 243.58 188.94
  Q 232.47 189.46 221.89 187.83
  Z
  M 207.04 133.25
  Q 217.99 130.61 230.26 131.25
  Q 230.95 131.72 231.48 131.40
  A 0.47 0.46 52.4 0 0 231.57 130.68
  Q 220.77 119.15 204.74 120.06
  Q 204.07 120.10 204.27 120.74
  Q 206.34 127.27 203.92 133.67
  Q 203.73 134.17 204.25 134.03
  L 207.04 133.25
  Z
  M 207.17 137.33
  L 201.43 139.15
  Q 197.59 139.76 194.50 141.78
  Q 171.59 152.79 157.82 174.37
  C 148.22 189.42 147.56 206.83 152.32 223.73
  L 156.80 235.15
  A 0.29 0.29 0.0 0 0 157.35 234.99
  C 156.42 230.07 154.22 200.99 167.46 208.17
  Q 171.82 210.53 176.82 212.32
  A 0.31 0.31 0.0 0 0 177.13 211.80
  C 169.74 205.05 163.71 194.21 164.85 183.83
  C 166.08 172.58 176.75 170.85 185.86 172.99
  Q 186.50 173.14 186.50 172.48
  L 186.50 166.30
  Q 186.50 165.61 187.19 165.59
  L 189.43 165.52
  A 0.76 0.74 -3.8 0 1 190.19 166.17
  L 190.58 169.36
  Q 190.00 173.88 192.25 174.69
  L 205.09 179.46
  Q 205.71 179.69 205.41 179.11
  Q 201.05 170.38 202.72 159.44
  Q 203.03 157.42 204.60 157.19
  Q 206.15 156.96 206.58 158.31
  Q 206.93 159.40 206.59 161.25
  Q 205.41 167.66 207.77 174.04
  Q 208.59 177.35 211.99 180.77
  C 214.23 183.01 224.73 183.56 227.76 183.98
  Q 229.57 184.23 228.28 182.94
  Q 214.07 168.66 223.36 150.06
  Q 223.74 149.29 224.87 148.28
  Q 225.24 147.95 225.73 148.00
  Q 228.73 148.30 227.39 151.68
  Q 221.14 162.37 226.11 173.07
  Q 229.00 179.35 235.69 183.84
  Q 236.12 184.13 236.64 184.11
  Q 258.83 183.56 278.78 173.99
  A 0.75 0.75 0.0 0 0 279.20 173.19
  Q 277.55 163.02 272.11 155.20
  C 264.23 143.91 252.11 138.36 238.77 136.19
  L 230.23 135.27
  L 220.53 135.28
  Q 213.79 135.10 207.17 137.33
  Z
  M 198.24 190.50
  Q 203.82 190.21 208.77 187.58
  L 211.31 186.17
  Q 211.88 185.86 211.26 185.67
  L 200.16 182.25
  A 0.64 0.63 -66.9 0 0 199.42 182.55
  Q 197.04 186.74 193.33 189.86
  A 0.51 0.51 0.0 0 0 193.69 190.76
  L 198.24 190.50
  Z"
/>
<path fill="#ebf4f3" d="
  M 230.26 131.25
  Q 219.59 122.97 206.18 123.34
  A 0.34 0.34 0.0 0 0 205.88 123.81
  Q 207.84 128.21 207.04 133.25
  L 204.25 134.03
  Q 203.73 134.17 203.92 133.67
  Q 206.34 127.27 204.27 120.74
  Q 204.07 120.10 204.74 120.06
  Q 220.77 119.15 231.57 130.68
  A 0.47 0.46 52.4 0 1 231.48 131.40
  Q 230.95 131.72 230.26 131.25
  Z"
/>
<path fill="#62ddd6" d="
  M 230.26 131.25
  Q 217.99 130.61 207.04 133.25
  Q 207.84 128.21 205.88 123.81
  A 0.34 0.34 0.0 0 1 206.18 123.34
  Q 219.59 122.97 230.26 131.25
  Z"
/>
<path fill="#86ada0" d="
  M 220.53 135.28
  L 207.17 137.33
  Q 213.79 135.10 220.53 135.28
  Z"
/>
<path fill="#ebf4f3" d="
  M 220.53 135.28
  L 230.23 135.27
  L 238.77 136.19
  C 252.11 138.36 264.23 143.91 272.11 155.20
  Q 271.04 156.09 270.52 155.48
  C 254.51 136.79 222.29 135.84 201.00 143.59
  C 181.81 150.57 160.87 169.84 154.24 189.42
  C 151.04 198.88 149.85 212.15 153.73 221.88
  Q 154.08 222.76 153.89 223.20
  Q 153.57 223.93 152.32 223.73
  C 147.56 206.83 148.22 189.42 157.82 174.37
  Q 171.59 152.79 194.50 141.78
  L 201.43 139.15
  L 207.17 137.33
  L 220.53 135.28
  Z"
/>
<path fill="#86ada0" d="
  M 230.23 135.27
  L 238.77 136.19
  L 230.23 135.27
  Z"
/>
<path fill="#86ada0" d="
  M 201.43 139.15
  L 194.50 141.78
  Q 197.59 139.76 201.43 139.15
  Z"
/>
<path fill="#86ada0" d="
  M 272.11 155.20
  Q 277.55 163.02 279.20 173.19
  A 0.75 0.75 0.0 0 1 278.78 173.99
  Q 258.83 183.56 236.64 184.11
  Q 236.12 184.13 235.69 183.84
  Q 229.00 179.35 226.11 173.07
  Q 225.04 163.20 229.07 155.80
  C 230.17 153.80 229.89 152.00 227.39 151.68
  Q 228.73 148.30 225.73 148.00
  Q 225.24 147.95 224.87 148.28
  Q 223.74 149.29 223.36 150.06
  Q 214.07 168.66 228.28 182.94
  Q 229.57 184.23 227.76 183.98
  C 224.73 183.56 214.23 183.01 211.99 180.77
  Q 208.59 177.35 207.77 174.04
  Q 208.34 167.73 208.61 162.49
  Q 208.69 160.87 206.59 161.25
  Q 206.93 159.40 206.58 158.31
  Q 206.15 156.96 204.60 157.19
  Q 203.03 157.42 202.72 159.44
  Q 201.05 170.38 205.41 179.11
  Q 205.71 179.69 205.09 179.46
  L 192.25 174.69
  Q 193.34 169.72 190.58 169.36
  L 190.19 166.17
  A 0.76 0.74 -3.8 0 0 189.43 165.52
  L 187.19 165.59
  Q 186.50 165.61 186.50 166.30
  L 186.50 172.48
  Q 186.50 173.14 185.86 172.99
  C 176.75 170.85 166.08 172.58 164.85 183.83
  C 163.71 194.21 169.74 205.05 177.13 211.80
  A 0.31 0.31 0.0 0 1 176.82 212.32
  Q 171.82 210.53 167.46 208.17
  C 154.22 200.99 156.42 230.07 157.35 234.99
  A 0.29 0.29 0.0 0 1 156.80 235.15
  L 152.32 223.73
  Q 153.57 223.93 153.89 223.20
  Q 154.08 222.76 153.73 221.88
  C 149.85 212.15 151.04 198.88 154.24 189.42
  C 160.87 169.84 181.81 150.57 201.00 143.59
  C 222.29 135.84 254.51 136.79 270.52 155.48
  Q 271.04 156.09 272.11 155.20
  Z
  M 244.08 164.16
  Q 244.91 167.37 247.61 168.96
  C 254.99 173.30 264.27 162.25 258.55 157.27
  C 256.16 145.23 237.16 152.56 244.08 164.16
  Z"
/>
<path fill="#213d4a" d="
  M 323.10 210.96
  C 325.93 210.65 329.58 208.49 329.80 205.43
  C 330.15 200.69 330.60 194.98 328.15 190.70
  C 327.26 189.16 326.71 186.74 325.94 185.80
  Q 320.92 179.69 314.97 175.26
  A 2.40 2.40 0.0 0 1 314.59 171.76
  C 317.74 168.13 330.42 173.19 333.71 175.32
  C 343.06 181.36 337.38 146.80 336.99 144.24
  Q 336.66 142.08 338.35 141.19
  A 2.40 2.40 0.0 0 1 341.45 141.99
  C 345.76 148.43 347.59 154.47 350.54 161.80
  Q 351.48 164.15 352.04 167.55
  C 352.59 170.90 354.01 173.60 354.00 176.97
  C 353.98 186.03 354.81 195.97 351.10 204.53
  C 344.18 220.50 333.52 232.08 319.42 242.53
  C 312.99 247.29 304.85 249.10 299.37 255.04
  Q 299.00 255.43 299.00 255.97
  L 299.00 264.71
  A 1.41 1.38 -67.2 0 0 299.38 265.67
  L 301.57 268.00
  A 2.32 2.32 0.0 0 1 300.13 271.90
  C 290.83 272.94 279.89 271.15 271.87 265.82
  C 267.86 263.15 263.79 256.42 258.87 255.22
  C 235.20 249.40 219.76 238.91 215.73 213.48
  Q 215.61 212.74 216.30 211.30
  A 1.54 1.52 88.3 0 1 216.94 210.61
  Q 226.17 205.43 236.28 202.41
  C 238.15 201.85 239.92 202.39 241.76 201.16
  Q 242.15 200.89 242.61 200.99
  Q 244.16 201.31 245.31 200.35
  A 1.53 1.52 -64.5 0 1 246.27 200.01
  C 248.20 199.99 252.90 200.52 254.31 199.33
  Q 254.69 199.01 255.19 199.01
  Q 263.38 198.98 271.56 199.02
  C 275.18 199.04 279.88 201.30 283.43 199.02
  C 288.97 195.48 294.15 193.03 301.00 192.84
  C 304.69 192.74 312.23 191.87 313.89 195.64
  A 0.93 0.91 56.2 0 1 313.70 196.67
  L 305.54 204.84
  A 1.77 1.77 0.0 0 0 306.41 207.83
  Q 309.47 208.51 312.51 209.64
  Q 317.66 211.57 323.10 210.96
  Z
  M 327.04 179.96
  Q 331.37 186.19 333.35 191.80
  C 334.14 195.46 335.37 199.64 334.98 203.15
  C 333.58 215.64 324.69 216.04 313.77 214.78
  Q 313.21 214.72 313.31 215.28
  Q 314.11 219.73 312.65 222.16
  Q 310.82 222.43 309.98 221.97
  Q 309.54 221.73 309.51 221.23
  L 309.02 213.78
  L 294.83 208.19
  A 0.47 0.47 0.0 0 0 294.25 208.85
  L 295.54 211.24
  Q 295.48 212.88 296.76 213.82
  Q 298.03 221.67 297.09 228.13
  Q 295.44 231.61 293.49 230.05
  A 1.25 1.24 23.4 0 1 293.02 228.88
  C 293.97 222.81 293.59 215.49 290.40 210.06
  C 286.66 203.82 279.01 204.09 271.25 203.83
  Q 270.92 203.82 271.14 204.07
  L 274.09 207.45
  L 278.57 215.28
  Q 282.05 227.29 275.66 238.80
  L 274.09 239.39
  A 1.56 1.56 0.0 0 1 272.07 237.43
  C 272.85 235.11 274.16 232.94 274.77 230.81
  Q 277.78 220.29 271.87 211.22
  L 263.98 203.55
  Q 263.62 203.19 263.11 203.27
  L 261.28 203.54
  L 254.23 203.94
  Q 236.68 205.93 220.91 213.81
  Q 220.44 214.04 220.48 214.56
  Q 220.95 220.24 224.23 226.14
  Q 232.09 243.23 251.26 249.03
  C 285.58 259.41 320.25 245.50 339.98 216.27
  C 352.27 198.06 352.97 178.69 345.36 158.46
  L 343.03 152.82
  A 0.28 0.28 0.0 0 0 342.50 152.96
  C 343.07 158.63 346.18 187.14 331.46 178.93
  Q 327.85 176.91 323.82 175.74
  Q 323.07 175.52 323.49 176.18
  Q 325.11 178.74 327.04 179.96
  Z
  M 291.80 203.04
  Q 292.90 204.51 295.69 204.22
  Q 296.21 204.16 296.70 204.36
  L 299.49 205.45
  Q 299.96 205.63 300.25 205.22
  L 303.63 200.35
  L 306.45 197.68
  Q 306.92 197.24 306.28 197.17
  Q 296.64 196.11 288.56 201.44
  Q 287.87 201.90 288.66 202.13
  L 291.80 203.04
  Z
  M 271.57 260.29
  Q 282.12 268.33 295.51 267.88
  Q 295.90 267.87 295.73 267.52
  Q 293.51 262.72 295.21 256.58
  L 295.42 254.52
  Q 295.49 253.87 294.84 254.01
  Q 281.81 257.03 268.43 256.37
  A 0.26 0.26 0.0 0 0 268.23 256.81
  L 271.57 260.29
  Z"
/>
<path fill="#86ada0" d="
  M 176.53 147.92
  Q 174.60 150.56 171.74 152.06
  Q 173.86 149.12 176.53 147.92
  Z"
/>
<path fill="#213d4a" d="
  M 258.55 157.27
  C 256.97 164.76 251.24 168.60 244.08 164.16
  C 237.16 152.56 256.16 145.23 258.55 157.27
  Z
  M 253.7666 156.5379
  A 4.02 3.10 -33.9 0 0 248.7010 156.2070
  A 4.02 3.10 -33.9 0 0 247.0934 161.0221
  A 4.02 3.10 -33.9 0 0 252.1590 161.3530
  A 4.02 3.10 -33.9 0 0 253.7666 156.5379
  Z"
/>
<path fill="#ebf4f3" d="
  M 227.39 151.68
  C 229.89 152.00 230.17 153.80 229.07 155.80
  Q 225.04 163.20 226.11 173.07
  Q 221.14 162.37 227.39 151.68
  Z"
/>
<path fill="#ebf4f3" d="
  M 345.36 158.46
  C 346.11 165.36 346.72 184.15 336.75 184.32
  A 1.50 1.48 -32.5 0 1 336.14 184.19
  L 327.04 179.96
  Q 325.11 178.74 323.49 176.18
  Q 323.07 175.52 323.82 175.74
  Q 327.85 176.91 331.46 178.93
  C 346.18 187.14 343.07 158.63 342.50 152.96
  A 0.28 0.28 0.0 0 1 343.03 152.82
  L 345.36 158.46
  Z"
/>
<ellipse fill="#ebf4f3" cx="0.00" cy="0.00" transform="translate(250.43,158.78) rotate(-33.9)" rx="4.02" ry="3.10"/>
<path fill="#ebf4f3" d="
  M 258.55 157.27
  C 264.27 162.25 254.99 173.30 247.61 168.96
  Q 244.91 167.37 244.08 164.16
  C 251.24 168.60 256.97 164.76 258.55 157.27
  Z"
/>
<path fill="#62ddd6" d="
  M 345.36 158.46
  C 352.97 178.69 352.27 198.06 339.98 216.27
  C 320.25 245.50 285.58 259.41 251.26 249.03
  Q 232.09 243.23 224.23 226.14
  L 222.82 218.13
  A 0.89 0.88 -17.8 0 1 223.31 217.19
  Q 241.39 208.55 261.40 207.38
  C 266.85 207.06 267.64 208.61 271.10 212.26
  Q 271.58 212.76 271.71 212.08
  L 271.87 211.22
  Q 277.78 220.29 274.77 230.81
  C 274.16 232.94 272.85 235.11 272.07 237.43
  A 1.56 1.56 0.0 0 0 274.09 239.39
  L 275.66 238.80
  Q 273.73 240.81 274.22 242.21
  Q 274.68 243.50 276.14 243.35
  Q 277.45 243.21 278.20 241.55
  Q 283.75 229.38 280.73 217.75
  Q 280.38 216.39 278.57 215.28
  L 274.09 207.45
  C 277.50 207.64 286.22 208.21 288.79 210.04
  Q 290.41 211.20 290.40 210.06
  C 293.59 215.49 293.97 222.81 293.02 228.88
  A 1.25 1.24 23.4 0 0 293.49 230.05
  Q 295.44 231.61 297.09 228.13
  Q 297.17 230.13 295.91 230.85
  A 1.93 1.93 0.0 0 0 296.09 234.29
  C 297.56 234.94 298.74 233.75 299.03 232.31
  Q 301.14 222.03 296.76 213.82
  Q 295.48 212.88 295.54 211.24
  L 308.03 216.07
  Q 308.60 216.29 308.70 215.68
  L 309.02 213.78
  L 309.51 221.23
  Q 309.54 221.73 309.98 221.97
  Q 310.82 222.43 312.65 222.16
  C 309.28 224.88 313.94 227.75 315.45 224.69
  C 316.14 223.28 315.49 220.54 315.50 218.88
  Q 315.50 218.28 316.09 218.41
  C 335.63 222.75 340.18 209.37 335.28 193.54
  Q 334.68 191.59 333.35 191.80
  Q 331.37 186.19 327.04 179.96
  L 336.14 184.19
  A 1.50 1.48 -32.5 0 0 336.75 184.32
  C 346.72 184.15 346.11 165.36 345.36 158.46
  Z
  M 243.86 235.32
  C 247.68 244.85 260.84 239.49 259.06 229.25
  Q 258.88 228.22 257.81 227.56
  Q 257.34 227.28 257.28 227.83
  L 257.02 230.29
  C 258.57 213.63 233.50 224.27 243.86 235.32
  Z"
/>
<path fill="#ebf4f3" d="
  M 206.59 161.25
  Q 208.69 160.87 208.61 162.49
  Q 208.34 167.73 207.77 174.04
  Q 205.41 167.66 206.59 161.25
  Z"
/>
<path fill="#ebf4f3" d="
  M 190.58 169.36
  Q 193.34 169.72 192.25 174.69
  Q 190.00 173.88 190.58 169.36
  Z"
/>
<path fill="#86ada0" d="
  M 183.47 176.85
  L 175.28 176.84
  Q 179.54 174.87 183.47 176.85
  Z"
/>
<path fill="#86ada0" d="
  M 174.04 177.19
  L 170.07 181.07
  Q 171.04 178.26 174.04 177.19
  Z"
/>
<path fill="#86ada0" d="
  M 169.80 181.99
  L 169.81 191.73
  Q 167.56 186.78 169.80 181.99
  Z"
/>
<path fill="#ebf4f3" d="
  M 208.77 187.58
  Q 205.58 187.30 202.90 185.80
  A 1.33 1.32 31.6 0 0 201.16 186.21
  L 198.24 190.50
  L 193.69 190.76
  A 0.51 0.51 0.0 0 1 193.33 189.86
  Q 197.04 186.74 199.42 182.55
  A 0.64 0.63 -66.9 0 1 200.16 182.25
  L 211.26 185.67
  Q 211.88 185.86 211.31 186.17
  L 208.77 187.58
  Z"
/>
<path fill="#62ddd6" d="
  M 208.77 187.58
  Q 203.82 190.21 198.24 190.50
  L 201.16 186.21
  A 1.33 1.32 31.6 0 1 202.90 185.80
  Q 205.58 187.30 208.77 187.58
  Z"
/>
<path fill="#86ada0" d="
  M 221.89 187.83
  L 216.99 187.95
  Q 216.93 186.98 218.22 186.97
  Q 219.09 186.96 219.28 186.95
  Q 221.85 186.76 221.89 187.83
  Z"
/>
<path fill="#ebf4f3" d="
  M 312.65 222.16
  Q 314.11 219.73 313.31 215.28
  Q 313.21 214.72 313.77 214.78
  C 324.69 216.04 333.58 215.64 334.98 203.15
  C 335.37 199.64 334.14 195.46 333.35 191.80
  Q 334.68 191.59 335.28 193.54
  C 340.18 209.37 335.63 222.75 316.09 218.41
  Q 315.50 218.28 315.50 218.88
  C 315.49 220.54 316.14 223.28 315.45 224.69
  C 313.94 227.75 309.28 224.88 312.65 222.16
  Z"
/>
<path fill="#ebf4f3" d="
  M 303.63 200.35
  L 291.80 203.04
  L 288.66 202.13
  Q 287.87 201.90 288.56 201.44
  Q 296.64 196.11 306.28 197.17
  Q 306.92 197.24 306.45 197.68
  L 303.63 200.35
  Z"
/>
<path fill="#86ada0" d="
  M 303.63 200.35
  L 300.25 205.22
  Q 299.96 205.63 299.49 205.45
  L 296.70 204.36
  Q 296.21 204.16 295.69 204.22
  Q 292.90 204.51 291.80 203.04
  L 303.63 200.35
  Z"
/>
<path fill="#ebf4f3" d="
  M 271.87 211.22
  L 271.71 212.08
  Q 271.58 212.76 271.10 212.26
  C 267.64 208.61 266.85 207.06 261.40 207.38
  Q 241.39 208.55 223.31 217.19
  A 0.89 0.88 -17.8 0 0 222.82 218.13
  L 224.23 226.14
  Q 220.95 220.24 220.48 214.56
  Q 220.44 214.04 220.91 213.81
  Q 236.68 205.93 254.23 203.94
  Q 257.48 204.67 261.28 203.54
  L 263.11 203.27
  Q 263.62 203.19 263.98 203.55
  L 271.87 211.22
  Z"
/>
<path fill="#86ada0" d="
  M 261.28 203.54
  Q 257.48 204.67 254.23 203.94
  L 261.28 203.54
  Z"
/>
<path fill="#ebf4f3" d="
  M 290.40 210.06
  Q 290.41 211.20 288.79 210.04
  C 286.22 208.21 277.50 207.64 274.09 207.45
  L 271.14 204.07
  Q 270.92 203.82 271.25 203.83
  C 279.01 204.09 286.66 203.82 290.40 210.06
  Z"
/>
<path fill="#ebf4f3" d="
  M 309.02 213.78
  L 308.70 215.68
  Q 308.60 216.29 308.03 216.07
  L 295.54 211.24
  L 294.25 208.85
  A 0.47 0.47 0.0 0 1 294.83 208.19
  L 309.02 213.78
  Z"
/>
<path fill="#ebf4f3" d="
  M 296.76 213.82
  Q 301.14 222.03 299.03 232.31
  C 298.74 233.75 297.56 234.94 296.09 234.29
  A 1.93 1.93 0.0 0 1 295.91 230.85
  Q 297.17 230.13 297.09 228.13
  Q 298.03 221.67 296.76 213.82
  Z"
/>
<path fill="#ebf4f3" d="
  M 278.57 215.28
  Q 280.38 216.39 280.73 217.75
  Q 283.75 229.38 278.20 241.55
  Q 277.45 243.21 276.14 243.35
  Q 274.68 243.50 274.22 242.21
  Q 273.73 240.81 275.66 238.80
  Q 282.05 227.29 278.57 215.28
  Z"
/>
<path fill="#213d4a" d="
  M 257.02 230.29
  Q 253.49 239.16 243.86 235.32
  C 233.50 224.27 258.57 213.63 257.02 230.29
  Z
  M 252.7127 226.6903
  A 4.01 3.04 -34.3 0 0 247.6869 226.4387
  A 4.01 3.04 -34.3 0 0 246.0873 231.2097
  A 4.01 3.04 -34.3 0 0 251.1131 231.4613
  A 4.01 3.04 -34.3 0 0 252.7127 226.6903
  Z"
/>
<ellipse fill="#ebf4f3" cx="0.00" cy="0.00" transform="translate(249.40,228.95) rotate(-34.3)" rx="4.01" ry="3.04"/>
<path fill="#ebf4f3" d="
  M 243.86 235.32
  Q 253.49 239.16 257.02 230.29
  L 257.28 227.83
  Q 257.34 227.28 257.81 227.56
  Q 258.88 228.22 259.06 229.25
  C 260.84 239.49 247.68 244.85 243.86 235.32
  Z"
/>
<path fill="#ebf4f3" d="
  M 295.21 256.58
  Q 293.90 258.82 290.94 259.19
  Q 279.31 260.62 271.57 260.29
  L 268.23 256.81
  A 0.26 0.26 0.0 0 1 268.43 256.37
  Q 281.81 257.03 294.84 254.01
  Q 295.49 253.87 295.42 254.52
  L 295.21 256.58
  Z"
/>
<path fill="#86ada0" d="
  M 295.21 256.58
  Q 293.51 262.72 295.73 267.52
  Q 295.90 267.87 295.51 267.88
  Q 282.12 268.33 271.57 260.29
  Q 279.31 260.62 290.94 259.19
  Q 293.90 258.82 295.21 256.58
  Z"
/>
<path fill="#213d4a" d="
  M 183.69 315.02
  Q 181.29 314.86 178.64 315.05
  Q 178.00 315.10 178.00 315.74
  L 178.00 330.34
  A 0.65 0.65 0.0 0 1 177.35 330.99
  L 171.50 331.00
  Q 171.00 331.01 171.00 330.50
  L 171.00 295.01
  A 0.97 0.97 0.0 0 1 171.96 294.04
  C 178.54 293.97 187.14 291.99 192.60 296.96
  C 201.32 304.89 194.31 315.76 183.69 315.02
  Z
  M 177.98 301.05
  L 178.00 307.93
  A 1.22 1.22 0.0 0 0 179.22 309.15
  L 184.26 309.14
  A 4.78 4.29 -0.1 0 0 189.03 304.84
  L 189.03 304.10
  A 4.78 4.29 -0.1 0 0 184.24 299.82
  L 179.20 299.83
  A 1.22 1.22 0.0 0 0 177.98 301.05
  Z"
/>
<path fill="#213d4a" d="
  M 313.79 306.63
  C 318.19 302.09 325.65 303.17 328.81 308.53
  C 331.36 312.85 330.02 324.97 329.96 330.21
  Q 329.96 330.64 329.52 330.67
  L 325.20 331.01
  A 1.12 1.12 0.0 0 1 324.00 329.89
  Q 324.00 323.06 324.03 316.25
  C 324.07 306.97 313.58 308.04 313.23 315.82
  Q 312.93 322.73 313.00 329.46
  A 1.53 1.53 0.0 0 1 311.47 331.00
  L 306.50 331.00
  Q 306.00 331.00 306.00 330.50
  L 306.00 295.02
  A 1.17 1.17 0.0 0 1 307.22 293.85
  L 312.09 294.06
  A 1.01 1.01 0.0 0 1 313.05 295.09
  L 312.86 306.24
  A 0.54 0.54 0.0 0 0 313.79 306.63
  Z"
/>
<path fill="#213d4a" d="
  M 249.92 299.20
  L 240.00 299.07
  Q 238.33 299.05 238.24 300.72
  Q 237.46 315.32 238.53 330.96
  L 232.70 330.93
  A 0.71 0.71 0.0 0 1 232.00 330.22
  L 232.00 301.00
  A 1.00 1.00 0.0 0 0 231.00 300.00
  L 220.91 300.00
  A 1.05 1.04 1.3 0 1 219.86 298.91
  L 220.06 294.71
  A 0.74 0.73 -88.8 0 1 220.79 294.00
  L 249.03 294.00
  Q 249.62 294.00 249.79 294.57
  Q 250.31 296.31 249.92 299.20
  Z"
/>
<path fill="#86ada0" d="
  M 249.92 299.20
  Q 245.21 300.58 239.86 299.86
  A 0.84 0.84 0.0 0 0 238.91 300.68
  L 238.53 330.96
  Q 237.46 315.32 238.24 300.72
  Q 238.33 299.05 240.00 299.07
  L 249.92 299.20
  Z"
/>
<path fill="#213d4a" d="
  M 211.57 325.13
  C 212.82 322.20 210.95 320.62 208.11 320.25
  C 200.97 319.31 194.02 311.00 202.79 305.76
  Q 211.79 300.39 218.50 309.07
  Q 218.84 309.51 218.45 309.90
  Q 216.64 311.77 214.04 312.03
  A 0.97 0.96 -20.4 0 1 213.17 311.64
  Q 210.46 307.97 206.04 309.20
  Q 205.60 309.33 205.40 309.75
  C 203.68 313.30 208.89 314.12 211.76 314.68
  C 220.23 316.34 220.54 329.05 211.93 331.18
  C 207.57 332.26 200.65 331.00 198.02 326.18
  A 1.15 1.12 43.2 0 1 197.98 325.19
  Q 199.12 322.63 201.95 322.03
  Q 202.40 321.94 202.59 322.36
  Q 205.01 327.75 210.91 325.74
  A 1.11 1.09 1.6 0 0 211.57 325.13
  Z"
/>
<path fill="#213d4a" d="
  M 257.99 320.57
  C 258.48 326.13 267.10 325.59 270.51 323.45
  Q 270.90 323.21 271.34 323.34
  C 273.68 324.03 276.53 327.01 273.41 328.98
  C 267.00 333.04 257.50 332.24 253.14 325.54
  C 248.04 317.68 252.11 305.64 261.87 304.04
  C 271.50 302.46 277.56 310.13 275.71 319.31
  A 0.71 0.70 5.4 0 1 275.01 319.88
  L 258.46 320.04
  Q 257.94 320.05 257.99 320.57
  Z
  M 258.17 315.02
  L 270.07 314.96
  A 0.13 0.13 0.0 0 0 270.20 314.83
  L 270.20 314.76
  A 5.53 4.82 -0.3 0 0 264.65 309.97
  L 263.55 309.97
  A 5.53 4.82 -0.3 0 0 258.04 314.82
  L 258.04 314.89
  A 0.13 0.13 0.0 0 0 258.17 315.02
  Z"
/>
<path fill="#213d4a" d="
  M 285.95 313.56
  Q 283.85 315.49 285.12 318.01
  C 284.04 325.63 292.12 327.17 296.59 322.11
  A 0.79 0.79 0.0 0 1 297.44 321.88
  L 301.51 323.22
  A 0.77 0.77 0.0 0 1 301.97 324.28
  C 294.43 340.68 270.80 326.64 279.87 310.66
  C 284.45 302.58 297.93 300.60 301.83 310.43
  A 1.69 1.67 70.5 0 1 300.78 312.65
  L 297.09 313.83
  A 0.65 0.65 0.0 0 1 296.29 313.44
  C 294.43 308.52 287.52 308.40 285.95 313.56
  Z"
/>
<path fill="#86ada0" d="
  M 285.95 313.56
  L 285.12 318.01
  Q 283.85 315.49 285.95 313.56
  Z"
/>
</svg>
