<?xml version="1.0" encoding="UTF-8" standalone="no"?>
<!DOCTYPE svg PUBLIC "-//W3C//DTD SVG 1.1//EN" "http://www.w3.org/Graphics/SVG/1.1/DTD/svg11.dtd">
<svg xmlns="http://www.w3.org/2000/svg" version="1.1" viewBox="0.00 0.00 1448.00 1448.00">
<g stroke-width="2.00" fill="none" stroke-linecap="butt">
<path stroke="#547676" vector-effect="non-scaling-stroke" d="
  M 597.88 334.82
  Q 585.49 335.06 580.94 335.44
  Q 575.52 335.90 572.17 339.24"
/>
<path stroke="#547676" vector-effect="non-scaling-stroke" d="
  M 602.91 335.09
  Q 608.35 336.20 613.68 337.09
  Q 616.92 337.64 618.48 337.01"
/>
<path stroke="#547676" vector-effect="non-scaling-stroke" d="
  M 689.30 381.88
  Q 689.01 381.57 689.00 382.13
  Q 688.99 382.43 689.29 382.48
  L 706.56 385.36"
/>
<path stroke="#547676" vector-effect="non-scaling-stroke" d="
  M 805.13 453.93
  Q 813.24 471.18 818.86 489.17"
/>
<path stroke="#547676" vector-effect="non-scaling-stroke" d="
  M 821.52 501.18
  Q 820.68 504.46 822.11 507.10"
/>
<path stroke="#547676" vector-effect="non-scaling-stroke" d="
  M 634.37 542.98
  Q 631.87 540.86 629.86 542.91"
/>
<path stroke="#547676" vector-effect="non-scaling-stroke" d="
  M 466.77 631.32
  Q 464.09 646.29 465.72 663.06
  Q 466.13 667.34 467.05 670.23"
/>
<path stroke="#547676" vector-effect="non-scaling-stroke" d="
  M 470.50 695.30
  L 471.67 708.61"
/>
<path stroke="#547676" vector-effect="non-scaling-stroke" d="
  M 426.05 631.79
  Q 426.57 627.63 424.25 623.62"
/>
<path stroke="#547676" vector-effect="non-scaling-stroke" d="
  M 424.22 622.35
  Q 425.23 618.60 423.60 617.97"
/>
<path stroke="#547676" vector-effect="non-scaling-stroke" d="
  M 423.24 616.14
  Q 424.40 614.13 422.82 611.70"
/>
<path stroke="#547676" vector-effect="non-scaling-stroke" d="
  M 422.37 610.18
  Q 423.61 606.89 421.77 605.93"
/>
<path stroke="#547676" vector-effect="non-scaling-stroke" d="
  M 424.15 554.09
  Q 426.63 549.37 426.52 544.36"
/>
<path stroke="#547676" vector-effect="non-scaling-stroke" d="
  M 468.72 469.75
  Q 506.68 424.64 559.93 399.89
  Q 560.02 399.84 564.02 398.15
  Q 572.22 394.67 576.54 388.28"
/>
<path stroke="#547676" vector-effect="non-scaling-stroke" d="
  M 1002.32 433.46
  Q 996.31 423.56 991.01 413.67
  C 984.68 401.86 973.40 411.52 976.11 421.51
  Q 978.04 428.63 978.15 435.84"
/>
<path stroke="#547676" vector-effect="non-scaling-stroke" d="
  M 1024.71 513.32
  Q 1023.52 516.30 1025.14 519.60"
/>
<path stroke="#547676" vector-effect="non-scaling-stroke" d="
  M 1025.53 523.60
  Q 1024.79 534.91 1025.56 546.08"
/>
<path stroke="#547676" vector-effect="non-scaling-stroke" d="
  M 1025.18 552.65
  Q 1023.45 554.07 1024.60 557.15"
/>
<path stroke="#547676" vector-effect="non-scaling-stroke" d="
  M 625.33 618.93
  Q 625.50 610.26 634.43 606.41
  Q 646.69 601.13 652.67 598.05"
/>
<path stroke="#547676" vector-effect="non-scaling-stroke" d="
  M 663.85 593.63
  Q 665.97 594.35 667.64 592.26"
/>
<path stroke="#547676" vector-effect="non-scaling-stroke" d="
  M 675.89 589.72
  Q 684.05 588.16 691.70 585.06"
/>
<path stroke="#547676" vector-effect="non-scaling-stroke" d="
  M 706.89 581.64
  Q 713.10 581.49 719.04 579.25"
/>
<path stroke="#547676" vector-effect="non-scaling-stroke" d="
  M 927.04 493.59
  L 944.38 498.22"
/>
<path stroke="#428d90" vector-effect="non-scaling-stroke" d="
  M 600.51 385.48
  Q 631.04 379.65 663.12 379.46"
/>
<path stroke="#909ea5" vector-effect="non-scaling-stroke" d="
  M 663.12 379.46
  L 670.64 380.61
  A 0.74 0.74 0.0 0 0 671.40 379.52
  Q 671.01 378.79 670.23 378.00
  Q 638.95 346.43 592.64 347.01
  Q 590.80 347.03 591.41 348.77
  Q 598.09 367.93 590.72 386.79
  A 0.89 0.89 0.0 0 0 591.79 387.97
  L 600.51 385.48"
/>
<path stroke="#b1eeea" vector-effect="non-scaling-stroke" d="
  M 663.12 379.46
  Q 654.82 370.22 643.53 365.69
  C 642.19 365.15 640.45 365.10 639.02 363.77
  Q 638.65 363.44 638.16 363.36
  Q 636.45 363.11 634.82 362.51
  C 623.97 358.56 611.30 357.11 599.52 356.95
  Q 597.88 356.93 598.03 358.56
  L 600.51 385.48"
/>
<path stroke="#547676" vector-effect="non-scaling-stroke" d="
  M 440.36 643.35
  L 454.47 681.27
  A 0.49 0.49 0.0 0 0 455.42 681.03
  Q 451.98 655.92 454.53 630.51
  C 456.02 615.68 464.13 591.25 485.06 602.75
  Q 488.43 604.61 499.23 609.27"
/>
<path stroke="#909ea5" vector-effect="non-scaling-stroke" d="
  M 499.23 609.27
  L 511.95 614.76
  A 0.46 0.46 0.0 0 0 512.49 614.04
  L 496.04 594.56"
/>
<path stroke="#547676" vector-effect="non-scaling-stroke" d="
  M 496.04 594.56
  C 480.09 571.07 462.56 515.91 499.86 501.47
  C 511.18 497.08 526.10 498.09 538.37 501.06
  A 1.28 1.27 6.9 0 0 539.94 499.83
  L 540.13 480.98
  A 1.31 1.30 -0.9 0 1 541.39 479.69
  L 548.89 479.43
  A 1.83 1.82 -4.2 0 1 550.77 481.04
  L 551.85 490.26"
/>
<path stroke="#909ea5" vector-effect="non-scaling-stroke" d="
  M 551.85 490.26
  C 551.04 495.49 551.11 502.41 556.25 505.71"
/>
<path stroke="#547676" vector-effect="non-scaling-stroke" d="
  M 556.25 505.71
  L 593.79 519.88
  A 1.01 1.01 0.0 0 0 595.05 518.47
  Q 581.82 492.41 587.02 464.02
  C 587.59 460.91 588.26 456.42 591.65 455.37
  Q 594.62 454.45 596.97 456.53
  C 599.35 458.64 598.83 463.28 598.79 466.22"
/>
<path stroke="#909ea5" vector-effect="non-scaling-stroke" d="
  M 598.79 466.22
  Q 594.43 486.05 602.46 505.13"
/>
<path stroke="#547676" vector-effect="non-scaling-stroke" d="
  M 602.46 505.13
  Q 606.40 519.42 618.85 525.68
  C 629.59 531.08 648.01 531.98 661.11 532.44
  A 0.85 0.85 0.0 0 0 661.75 531.00
  C 633.97 502.31 628.72 468.54 648.03 432.95
  C 652.56 424.60 662.80 430.50 659.31 438.17"
/>
<path stroke="#909ea5" vector-effect="non-scaling-stroke" d="
  M 659.31 438.17
  Q 640.73 468.21 654.57 500.38"
/>
<path stroke="#547676" vector-effect="non-scaling-stroke" d="
  M 654.57 500.38
  Q 663.49 519.77 681.69 531.71
  C 682.72 532.39 683.71 533.29 685.00 533.25
  Q 749.60 531.58 807.55 503.72
  A 1.57 1.56 -16.0 0 0 808.43 502.14
  Q 806.03 481.24 795.01 462.59"
/>
<path stroke="#909ea5" vector-effect="non-scaling-stroke" d="
  M 795.01 462.59
  Q 769.24 415.36 716.22 400.79
  Q 671.80 388.58 627.09 393.61
  C 550.49 402.22 482.75 453.43 448.10 521.45
  C 429.02 558.93 428.82 603.51 440.36 643.35"
/>
<path stroke="#c3d7d0" vector-effect="non-scaling-stroke" d="
  M 795.01 462.59
  Q 794.61 463.04 794.35 462.68
  C 782.94 446.98 768.90 432.94 751.79 423.81
  Q 731.59 413.05 708.99 408.28
  C 703.63 407.14 698.32 405.44 692.85 405.00
  Q 690.81 404.84 687.56 404.40
  C 623.83 395.92 559.72 416.80 511.45 458.97
  Q 483.09 483.74 461.38 518.36
  C 437.24 556.86 433.62 596.18 443.30 639.76
  Q 443.87 642.33 440.36 643.35"
/>
<path stroke="#c3d7d0" vector-effect="non-scaling-stroke" d="
  M 654.57 500.38
  Q 653.84 486.75 655.04 477.00
  Q 656.92 461.72 665.45 447.17
  Q 665.72 446.71 665.62 446.19
  Q 664.61 440.75 659.31 438.17"
/>
<path stroke="#c3d7d0" vector-effect="non-scaling-stroke" d="
  M 602.46 505.13
  Q 603.41 487.80 603.58 471.13
  C 603.61 467.91 601.74 466.46 598.79 466.22"
/>
<path stroke="#c3d7d0" vector-effect="non-scaling-stroke" d="
  M 556.25 505.71
  C 557.44 502.46 558.60 489.55 551.85 490.26"
/>
<path stroke="#c3d7d0" vector-effect="non-scaling-stroke" d="
  M 496.04 594.56
  L 499.23 609.27"
/>
<path stroke="#428d90" vector-effect="non-scaling-stroke" d="
  M 574.55 551.35
  Q 589.30 550.52 602.23 544.03"
/>
<path stroke="#c3d7d0" vector-effect="non-scaling-stroke" d="
  M 707.53 475.68
  Q 707.03 475.95 707.10 476.16
  C 717.99 508.76 764.93 486.55 749.68 455.63
  Q 749.54 455.36 749.36 455.28
  Q 749.12 455.18 748.84 455.29"
/>
<path stroke="#547676" vector-effect="non-scaling-stroke" d="
  M 748.84 455.29
  Q 748.87 453.60 748.33 452.44
  C 734.05 421.94 692.22 442.21 706.21 474.31
  Q 706.61 475.24 707.53 475.68"
/>
<path stroke="#909ea5" vector-effect="non-scaling-stroke" d="
  M 748.84 455.29
  C 745.59 477.63 727.62 485.93 707.53 475.68"
/>
<path stroke="#428d90" vector-effect="non-scaling-stroke" d="
  M 947.54 521.68
  Q 962.04 547.31 966.19 554.81
  Q 966.48 555.35 966.46 556.26"
/>
<path stroke="#909ea5" vector-effect="non-scaling-stroke" d="
  M 966.46 556.26
  Q 967.92 565.10 969.23 573.97
  C 975.66 617.51 944.69 628.85 908.35 621.55
  A 0.84 0.84 0.0 0 0 907.35 622.42
  L 908.18 638.29"
/>
<path stroke="#909ea5" vector-effect="non-scaling-stroke" d="
  M 904.66 643.23
  L 901.71 643.78"
/>
<path stroke="#428d90" vector-effect="non-scaling-stroke" d="
  M 901.71 643.78
  Q 897.56 644.22 896.58 640.16
  Q 895.43 635.42 895.51 627.05"
/>
<path stroke="#428d90" vector-effect="non-scaling-stroke" d="
  M 855.24 611.29
  L 859.20 621.77"
/>
<path stroke="#428d90" vector-effect="non-scaling-stroke" d="
  M 856.62 668.14
  C 851.29 667.30 846.54 667.37 848.12 660.05
  Q 854.05 632.57 840.45 608.03
  Q 840.12 607.43 839.31 607.49"
/>
<path stroke="#547676" vector-effect="non-scaling-stroke" d="
  M 787.02 590.22
  Q 786.29 589.95 785.82 590.00
  Q 785.20 590.07 785.44 590.64
  Q 785.83 591.56 786.83 591.85"
/>
<path stroke="#428d90" vector-effect="non-scaling-stroke" d="
  M 792.57 598.23
  Q 801.60 612.00 808.85 626.61"
/>
<path stroke="#909ea5" vector-effect="non-scaling-stroke" d="
  M 808.85 626.61
  L 810.67 642.95"
/>
<path stroke="#428d90" vector-effect="non-scaling-stroke" d="
  M 794.77 694.23
  C 781.22 693.06 791.26 680.00 793.57 674.11
  Q 806.26 641.73 788.02 614.07"
/>
<path stroke="#909ea5" vector-effect="non-scaling-stroke" d="
  M 788.02 614.07
  Q 778.72 600.35 766.15 591.07
  C 763.03 588.77 760.82 589.57 757.30 589.73
  Q 695.56 592.45 640.16 619.14
  A 2.26 2.26 0.0 0 0 638.90 621.44
  Q 641.13 640.43 650.68 657.07"
/>
<path stroke="#428d90" vector-effect="non-scaling-stroke" d="
  M 650.68 657.07
  C 666.50 690.96 695.43 711.80 730.91 721.86
  C 834.65 751.26 928.15 708.02 987.21 622.25
  C 1018.49 576.81 1021.83 520.04 1002.31 468.85"
/>
<path stroke="#909ea5" vector-effect="non-scaling-stroke" d="
  M 1002.31 468.85
  L 993.25 442.61
  A 0.85 0.85 0.0 0 0 991.60 443.00
  C 993.49 456.74 999.20 526.31 972.07 523.27
  Q 969.28 522.95 961.12 518.87
  Q 949.00 512.79 935.74 508.00
  A 0.61 0.61 0.0 0 0 935.09 509.00
  L 947.54 521.68"
/>
<path stroke="#b1eeea" vector-effect="non-scaling-stroke" d="
  M 1002.31 468.85
  Q 999.34 486.08 998.53 503.24
  C 997.85 517.93 990.01 540.70 969.75 530.44
  C 964.02 527.54 954.75 522.43 947.54 521.68"
/>
<path stroke="#b1eeea" vector-effect="non-scaling-stroke" d="
  M 650.68 657.07
  Q 650.46 645.64 645.99 635.32
  C 644.77 632.52 644.94 630.37 647.79 629.02
  Q 703.73 602.52 765.76 600.30
  C 767.71 600.23 770.36 601.10 772.00 602.66
  Q 779.08 609.38 788.02 614.07"
/>
<path stroke="#b1eeea" vector-effect="non-scaling-stroke" d="
  M 811.16 631.74
  Q 811.64 629.18 808.85 626.61"
/>
<path stroke="#b1eeea" vector-effect="non-scaling-stroke" d="
  M 901.71 643.78
  C 899.18 648.22 902.27 655.64 908.03 654.64
  C 915.74 653.30 915.26 643.27 914.78 637.45
  A 0.93 0.92 -67.0 0 0 914.57 636.92
  Q 912.89 634.81 914.99 632.87
  Q 915.38 632.50 915.91 632.58
  Q 918.71 633.03 923.74 634.31
  Q 931.52 636.29 940.31 635.40
  C 981.43 631.26 983.75 584.38 967.46 556.61
  Q 967.25 556.26 966.85 556.25
  Q 966.65 556.25 966.46 556.26"
/>
<path stroke="#547676" vector-effect="non-scaling-stroke" d="
  M 787.20 753.72
  C 805.57 769.34 831.34 776.71 855.11 775.50
  A 0.60 0.60 0.0 0 0 855.67 774.76
  Q 852.58 761.68 852.66 748.67"
/>
<path stroke="#909ea5" vector-effect="non-scaling-stroke" d="
  M 734.9047 453.3490
  A 11.62 8.98 -33.9 0 0 720.2514 452.3765
  A 11.62 8.98 -33.9 0 0 715.6153 466.3110
  A 11.62 8.98 -33.9 0 0 730.2686 467.2835
  A 11.62 8.98 -33.9 0 0 734.9047 453.3490"
/>
<path stroke="#b1eeea" vector-effect="non-scaling-stroke" d="
  M 707.57 682.41
  L 707.27 682.90
  Q 707.06 683.23 707.24 683.57
  C 721.81 711.91 765.78 684.34 746.05 658.37"
/>
<path stroke="#428d90" vector-effect="non-scaling-stroke" d="
  M 746.05 658.37
  Q 746.12 658.23 745.63 657.06
  C 731.26 623.17 683.18 652.71 705.40 680.70
  Q 706.38 681.93 707.57 682.41"
/>
<path stroke="#909ea5" vector-effect="non-scaling-stroke" d="
  M 746.05 658.37
  C 742.72 680.10 729.14 689.90 707.57 682.41"
/>
<path stroke="#909ea5" vector-effect="non-scaling-stroke" d="
  M 731.9785 656.8433
  A 11.55 8.78 -32.8 0 0 717.5138 655.7198
  A 11.55 8.78 -32.8 0 0 712.5615 669.3567
  A 11.55 8.78 -32.8 0 0 727.0262 670.4802
  A 11.55 8.78 -32.8 0 0 731.9785 656.8433"
/>
</g>
<path fill="#86aea0" d="
  M 597.88 334.82
  Q 585.49 335.06 580.94 335.44
  Q 575.52 335.90 572.17 339.24
  Q 571.82 336.94 576.02 335.84
  Q 586.80 333.03 597.88 334.82
  Z"
/>
<path fill="#213d4b" d="
  M 597.88 334.82
  Q 600.28 334.32 602.91 335.09
  Q 608.35 336.20 613.68 337.09
  Q 616.92 337.64 618.48 337.01
  Q 662.04 343.98 686.97 379.64
  C 687.67 380.64 688.38 381.07 689.30 381.88
  Q 689.01 381.57 689.00 382.13
  Q 688.99 382.43 689.29 382.48
  L 706.56 385.36
  C 740.96 392.26 771.29 409.12 793.48 436.26
  Q 800.71 445.11 805.13 453.93
  Q 813.24 471.18 818.86 489.17
  Q 820.86 494.88 821.52 501.18
  Q 820.68 504.46 822.11 507.10
  L 822.25 509.30
  Q 822.29 509.85 821.90 510.25
  Q 818.24 513.94 811.52 517.21
  C 772.84 536.07 731.84 546.22 689.31 546.76
  Q 661.50 547.12 634.37 542.98
  Q 631.87 540.86 629.86 542.91
  C 606.64 558.94 583.96 567.15 555.42 564.55
  C 549.28 563.99 539.81 562.73 536.62 557.09
  C 535.33 554.81 536.92 552.30 538.78 551.03
  Q 554.56 540.16 566.08 525.31
  A 1.23 1.23 0.0 0 0 565.61 523.44
  C 552.45 517.51 535.71 511.97 521.16 512.00
  C 517.12 512.01 512.68 511.67 508.96 512.58
  C 495.53 515.89 490.49 525.91 490.92 539.09
  C 491.04 542.76 490.80 546.42 491.45 549.93
  C 496.41 576.64 510.53 600.91 535.10 613.36
  C 542.95 617.34 537.55 624.95 532.24 627.39
  Q 529.58 628.61 525.05 628.49
  C 506.96 628.02 493.05 621.86 477.87 612.58
  C 476.05 611.47 474.38 611.41 473.20 613.28
  Q 468.44 620.80 466.77 631.32
  Q 464.09 646.29 465.72 663.06
  Q 466.13 667.34 467.05 670.23
  L 470.50 695.30
  L 471.67 708.61
  C 469.41 715.42 461.97 718.05 457.71 711.02
  Q 435.26 674.01 426.05 631.79
  Q 426.57 627.63 424.25 623.62
  L 424.22 622.35
  Q 425.23 618.60 423.60 617.97
  L 423.24 616.14
  Q 424.40 614.13 422.82 611.70
  L 422.37 610.18
  Q 423.61 606.89 421.77 605.93
  C 422.01 602.03 421.08 597.92 421.03 594.59
  Q 420.96 589.06 421.00 583.52
  C 421.02 579.00 421.85 573.54 421.81 568.47
  C 421.80 566.79 422.60 565.47 422.73 564.00
  Q 423.16 558.84 424.15 554.09
  Q 426.63 549.37 426.52 544.36
  Q 431.11 527.32 441.69 508.69
  Q 454.59 485.95 468.72 469.75
  Q 506.68 424.64 559.93 399.89
  Q 560.02 399.84 564.02 398.15
  Q 572.22 394.67 576.54 388.28
  C 582.21 377.62 584.74 366.09 580.08 354.89
  C 578.03 349.98 573.58 345.12 572.17 339.24
  Q 575.52 335.90 580.94 335.44
  Q 585.49 335.06 597.88 334.82
  Z
  M 600.51 385.48
  Q 631.04 379.65 663.12 379.46
  L 670.64 380.61
  A 0.74 0.74 0.0 0 0 671.40 379.52
  Q 671.01 378.79 670.23 378.00
  Q 638.95 346.43 592.64 347.01
  Q 590.80 347.03 591.41 348.77
  Q 598.09 367.93 590.72 386.79
  A 0.89 0.89 0.0 0 0 591.79 387.97
  L 600.51 385.48
  Z
  M 440.36 643.35
  L 454.47 681.27
  A 0.49 0.49 0.0 0 0 455.42 681.03
  Q 451.98 655.92 454.53 630.51
  C 456.02 615.68 464.13 591.25 485.06 602.75
  Q 488.43 604.61 499.23 609.27
  L 511.95 614.76
  A 0.46 0.46 0.0 0 0 512.49 614.04
  L 496.04 594.56
  C 480.09 571.07 462.56 515.91 499.86 501.47
  C 511.18 497.08 526.10 498.09 538.37 501.06
  A 1.28 1.27 6.9 0 0 539.94 499.83
  L 540.13 480.98
  A 1.31 1.30 -0.9 0 1 541.39 479.69
  L 548.89 479.43
  A 1.83 1.82 -4.2 0 1 550.77 481.04
  L 551.85 490.26
  C 551.04 495.49 551.11 502.41 556.25 505.71
  L 593.79 519.88
  A 1.01 1.01 0.0 0 0 595.05 518.47
  Q 581.82 492.41 587.02 464.02
  C 587.59 460.91 588.26 456.42 591.65 455.37
  Q 594.62 454.45 596.97 456.53
  C 599.35 458.64 598.83 463.28 598.79 466.22
  Q 594.43 486.05 602.46 505.13
  Q 606.40 519.42 618.85 525.68
  C 629.59 531.08 648.01 531.98 661.11 532.44
  A 0.85 0.85 0.0 0 0 661.75 531.00
  C 633.97 502.31 628.72 468.54 648.03 432.95
  C 652.56 424.60 662.80 430.50 659.31 438.17
  Q 640.73 468.21 654.57 500.38
  Q 663.49 519.77 681.69 531.71
  C 682.72 532.39 683.71 533.29 685.00 533.25
  Q 749.60 531.58 807.55 503.72
  A 1.57 1.56 -16.0 0 0 808.43 502.14
  Q 806.03 481.24 795.01 462.59
  Q 769.24 415.36 716.22 400.79
  Q 671.80 388.58 627.09 393.61
  C 550.49 402.22 482.75 453.43 448.10 521.45
  C 429.02 558.93 428.82 603.51 440.36 643.35
  Z
  M 574.55 551.35
  Q 589.30 550.52 602.23 544.03
  Q 608.01 542.25 611.92 539.23
  A 1.00 0.99 -55.8 0 0 611.59 537.48
  Q 595.81 533.00 580.93 528.48
  Q 578.19 527.64 577.25 529.25
  Q 570.60 540.52 559.73 549.55
  A 1.41 1.41 0.0 0 0 560.32 552.01
  Q 566.69 553.44 574.55 551.35
  Z"
/>
<path fill="#86aea0" d="
  M 602.91 335.09
  L 618.48 337.01
  Q 616.92 337.64 613.68 337.09
  Q 608.35 336.20 602.91 335.09
  Z"
/>
<path fill="#ffffff" d="
  M 663.12 379.46
  Q 654.82 370.22 643.53 365.69
  C 642.19 365.15 640.45 365.10 639.02 363.77
  Q 638.65 363.44 638.16 363.36
  Q 636.45 363.11 634.82 362.51
  C 623.97 358.56 611.30 357.11 599.52 356.95
  Q 597.88 356.93 598.03 358.56
  L 600.51 385.48
  L 591.79 387.97
  A 0.89 0.89 0.0 0 1 590.72 386.79
  Q 598.09 367.93 591.41 348.77
  Q 590.80 347.03 592.64 347.01
  Q 638.95 346.43 670.23 378.00
  Q 671.01 378.79 671.40 379.52
  A 0.74 0.74 0.0 0 1 670.64 380.61
  L 663.12 379.46
  Z"
/>
<path fill="#62ddd5" d="
  M 663.12 379.46
  Q 631.04 379.65 600.51 385.48
  L 598.03 358.56
  Q 597.88 356.93 599.52 356.95
  C 611.30 357.11 623.97 358.56 634.82 362.51
  Q 636.45 363.11 638.16 363.36
  Q 638.65 363.44 639.02 363.77
  C 640.45 365.10 642.19 365.15 643.53 365.69
  Q 654.82 370.22 663.12 379.46
  Z"
/>
<path fill="#86aea0" d="
  M 689.30 381.88
  L 706.56 385.36
  L 689.29 382.48
  Q 688.99 382.43 689.00 382.13
  Q 689.01 381.57 689.30 381.88
  Z"
/>
<path fill="#86aea0" d="
  M 576.54 388.28
  Q 572.22 394.67 564.02 398.15
  Q 560.02 399.84 559.93 399.89
  Q 506.68 424.64 468.72 469.75
  Q 469.23 468.25 470.98 466.23
  Q 510.53 420.63 565.28 396.79
  Q 570.96 394.31 576.54 388.28
  Z"
/>
<path fill="#ffffff" d="
  M 795.01 462.59
  Q 794.61 463.04 794.35 462.68
  C 782.94 446.98 768.90 432.94 751.79 423.81
  Q 731.59 413.05 708.99 408.28
  C 703.63 407.14 698.32 405.44 692.85 405.00
  Q 690.81 404.84 687.56 404.40
  C 623.83 395.92 559.72 416.80 511.45 458.97
  Q 483.09 483.74 461.38 518.36
  C 437.24 556.86 433.62 596.18 443.30 639.76
  Q 443.87 642.33 440.36 643.35
  C 428.82 603.51 429.02 558.93 448.10 521.45
  C 482.75 453.43 550.49 402.22 627.09 393.61
  Q 671.80 388.58 716.22 400.79
  Q 769.24 415.36 795.01 462.59
  Z"
/>
<path fill="#86aea0" d="
  M 795.01 462.59
  Q 806.03 481.24 808.43 502.14
  A 1.57 1.56 -16.0 0 1 807.55 503.72
  Q 749.60 531.58 685.00 533.25
  C 683.71 533.29 682.72 532.39 681.69 531.71
  Q 663.49 519.77 654.57 500.38
  Q 653.84 486.75 655.04 477.00
  Q 656.92 461.72 665.45 447.17
  Q 665.72 446.71 665.62 446.19
  Q 664.61 440.75 659.31 438.17
  C 662.80 430.50 652.56 424.60 648.03 432.95
  C 628.72 468.54 633.97 502.31 661.75 531.00
  A 0.85 0.85 0.0 0 1 661.11 532.44
  C 648.01 531.98 629.59 531.08 618.85 525.68
  Q 606.40 519.42 602.46 505.13
  Q 603.41 487.80 603.58 471.13
  C 603.61 467.91 601.74 466.46 598.79 466.22
  C 598.83 463.28 599.35 458.64 596.97 456.53
  Q 594.62 454.45 591.65 455.37
  C 588.26 456.42 587.59 460.91 587.02 464.02
  Q 581.82 492.41 595.05 518.47
  A 1.01 1.01 0.0 0 1 593.79 519.88
  L 556.25 505.71
  C 557.44 502.46 558.60 489.55 551.85 490.26
  L 550.77 481.04
  A 1.83 1.82 -4.2 0 0 548.89 479.43
  L 541.39 479.69
  A 1.31 1.30 -0.9 0 0 540.13 480.98
  L 539.94 499.83
  A 1.28 1.27 6.9 0 1 538.37 501.06
  C 526.10 498.09 511.18 497.08 499.86 501.47
  C 462.56 515.91 480.09 571.07 496.04 594.56
  L 499.23 609.27
  Q 488.43 604.61 485.06 602.75
  C 464.13 591.25 456.02 615.68 454.53 630.51
  Q 451.98 655.92 455.42 681.03
  A 0.49 0.49 0.0 0 1 454.47 681.27
  L 440.36 643.35
  Q 443.87 642.33 443.30 639.76
  C 433.62 596.18 437.24 556.86 461.38 518.36
  Q 483.09 483.74 511.45 458.97
  C 559.72 416.80 623.83 395.92 687.56 404.40
  Q 690.81 404.84 692.85 405.00
  C 698.32 405.44 703.63 407.14 708.99 408.28
  Q 731.59 413.05 751.79 423.81
  C 768.90 432.94 782.94 446.98 794.35 462.68
  Q 794.61 463.04 795.01 462.59
  Z
  M 707.53 475.68
  Q 707.03 475.95 707.10 476.16
  C 717.99 508.76 764.93 486.55 749.68 455.63
  Q 749.54 455.36 749.36 455.28
  Q 749.12 455.18 748.84 455.29
  Q 748.87 453.60 748.33 452.44
  C 734.05 421.94 692.22 442.21 706.21 474.31
  Q 706.61 475.24 707.53 475.68
  Z"
/>
<path fill="#86aea0" d="
  M 1002.32 433.46
  Q 996.31 423.56 991.01 413.67
  C 984.68 401.86 973.40 411.52 976.11 421.51
  Q 978.04 428.63 978.15 435.84
  Q 977.20 430.56 976.18 425.47
  C 974.99 419.58 974.02 416.80 976.45 412.23
  C 979.47 406.57 986.74 405.61 990.39 411.32
  Q 997.05 421.74 1002.32 433.46
  Z"
/>
<path fill="#213d4b" d="
  M 1002.32 433.46
  Q 1016.75 463.61 1022.80 497.24
  Q 1024.27 505.43 1024.71 513.32
  Q 1023.52 516.30 1025.14 519.60
  L 1025.53 523.60
  Q 1024.79 534.91 1025.56 546.08
  L 1025.18 552.65
  Q 1023.45 554.07 1024.60 557.15
  Q 1024.53 559.02 1024.14 561.29
  C 1011.66 634.54 948.37 696.91 882.74 725.57
  Q 867.22 732.35 865.25 749.75
  C 864.52 756.13 865.47 768.27 870.19 773.81
  C 876.37 781.08 877.43 787.13 865.77 787.84
  C 824.24 790.36 786.47 778.55 761.72 744.32
  C 759.79 741.65 759.13 740.77 755.63 740.19
  C 687.59 728.82 635.86 690.49 625.33 618.93
  Q 625.50 610.26 634.43 606.41
  Q 646.69 601.13 652.67 598.05
  L 663.85 593.63
  Q 665.97 594.35 667.64 592.26
  L 675.89 589.72
  Q 684.05 588.16 691.70 585.06
  Q 698.78 582.54 706.89 581.64
  Q 713.10 581.49 719.04 579.25
  Q 764.87 572.74 810.81 579.20
  C 814.27 579.69 817.25 579.93 820.33 577.77
  C 845.18 560.30 875.67 552.42 905.30 561.01
  C 912.47 563.09 912.72 567.98 907.52 572.53
  C 898.96 580.02 888.77 587.01 882.16 596.32
  Q 881.27 597.56 881.40 598.45
  Q 881.57 599.58 882.83 599.96
  Q 884.26 600.40 884.32 600.43
  C 900.51 607.32 921.49 613.54 938.45 609.82
  C 962.94 604.44 957.97 575.06 952.39 558.17
  Q 944.52 534.34 925.69 518.38
  C 922.35 515.54 908.68 507.74 908.61 503.42
  C 908.52 498.22 914.04 493.98 918.75 493.51
  Q 920.55 493.33 927.04 493.59
  L 944.38 498.22
  Q 957.94 503.27 970.63 510.66
  A 2.33 2.32 32.0 0 0 973.73 509.95
  C 980.84 499.28 981.92 482.69 981.67 470.25
  Q 981.44 458.45 978.15 435.84
  Q 978.04 428.63 976.11 421.51
  C 973.40 411.52 984.68 401.86 991.01 413.67
  Q 996.31 423.56 1002.32 433.46
  Z
  M 947.54 521.68
  Q 962.04 547.31 966.19 554.81
  Q 966.48 555.35 966.46 556.26
  Q 967.92 565.10 969.23 573.97
  C 975.66 617.51 944.69 628.85 908.35 621.55
  A 0.84 0.84 0.0 0 0 907.35 622.42
  L 908.18 638.29
  Q 906.94 641.22 904.66 643.23
  L 901.71 643.78
  Q 897.56 644.22 896.58 640.16
  Q 895.43 635.42 895.51 627.05
  Q 895.84 622.24 893.58 618.86
  Q 892.41 617.10 889.60 616.01
  Q 871.84 609.13 854.03 602.51
  A 1.40 1.39 6.2 0 0 852.16 604.01
  Q 852.70 607.84 855.24 611.29
  L 859.20 621.77
  Q 861.85 636.26 861.96 640.06
  Q 862.42 655.43 856.62 668.14
  C 851.29 667.30 846.54 667.37 848.12 660.05
  Q 854.05 632.57 840.45 608.03
  Q 840.12 607.43 839.31 607.49
  Q 839.19 605.70 837.92 603.79
  C 832.21 595.21 826.27 595.19 814.96 593.48
  Q 801.04 591.38 787.02 590.22
  Q 786.29 589.95 785.82 590.00
  Q 785.20 590.07 785.44 590.64
  Q 785.83 591.56 786.83 591.85
  L 792.57 598.23
  Q 801.60 612.00 808.85 626.61
  L 810.67 642.95
  Q 811.27 669.09 798.44 691.19
  Q 797.71 692.45 794.77 694.23
  C 781.22 693.06 791.26 680.00 793.57 674.11
  Q 806.26 641.73 788.02 614.07
  Q 778.72 600.35 766.15 591.07
  C 763.03 588.77 760.82 589.57 757.30 589.73
  Q 695.56 592.45 640.16 619.14
  A 2.26 2.26 0.0 0 0 638.90 621.44
  Q 641.13 640.43 650.68 657.07
  C 666.50 690.96 695.43 711.80 730.91 721.86
  C 834.65 751.26 928.15 708.02 987.21 622.25
  C 1018.49 576.81 1021.83 520.04 1002.31 468.85
  L 993.25 442.61
  A 0.85 0.85 0.0 0 0 991.60 443.00
  C 993.49 456.74 999.20 526.31 972.07 523.27
  Q 969.28 522.95 961.12 518.87
  Q 949.00 512.79 935.74 508.00
  A 0.61 0.61 0.0 0 0 935.09 509.00
  L 947.54 521.68
  Z
  M 885.96 573.70
  Q 887.13 572.84 887.48 572.09
  Q 888.54 569.87 886.09 570.01
  Q 878.99 570.44 871.78 571.22
  Q 852.57 573.31 835.78 582.87
  Q 835.09 583.26 834.63 583.72
  A 0.65 0.65 0.0 0 0 834.92 584.81
  C 842.31 586.88 849.96 588.26 857.09 590.89
  C 860.15 592.02 868.70 596.52 870.76 592.69
  C 874.73 585.27 879.61 578.41 885.96 573.70
  Z
  M 787.20 753.72
  C 805.57 769.34 831.34 776.71 855.11 775.50
  A 0.60 0.60 0.0 0 0 855.67 774.76
  Q 852.58 761.68 852.66 748.67
  L 855.85 736.62
  Q 856.51 734.15 854.07 734.89
  C 830.02 742.18 803.63 744.35 778.78 742.29
  A 1.32 1.32 0.0 0 0 777.75 744.56
  L 787.20 753.72
  Z"
/>
<path fill="#213d4b" d="
  M 748.84 455.29
  C 745.59 477.63 727.62 485.93 707.53 475.68
  Q 706.61 475.24 706.21 474.31
  C 692.22 442.21 734.05 421.94 748.33 452.44
  Q 748.87 453.60 748.84 455.29
  Z
  M 734.9047 453.3490
  A 11.62 8.98 -33.9 0 0 720.2514 452.3765
  A 11.62 8.98 -33.9 0 0 715.6153 466.3110
  A 11.62 8.98 -33.9 0 0 730.2686 467.2835
  A 11.62 8.98 -33.9 0 0 734.9047 453.3490
  Z"
/>
<path fill="#ffffff" d="
  M 659.31 438.17
  Q 664.61 440.75 665.62 446.19
  Q 665.72 446.71 665.45 447.17
  Q 656.92 461.72 655.04 477.00
  Q 653.84 486.75 654.57 500.38
  Q 640.73 468.21 659.31 438.17
  Z"
/>
<path fill="#ffffff" d="
  M 1002.31 468.85
  Q 999.34 486.08 998.53 503.24
  C 997.85 517.93 990.01 540.70 969.75 530.44
  C 964.02 527.54 954.75 522.43 947.54 521.68
  L 935.09 509.00
  A 0.61 0.61 0.0 0 1 935.74 508.00
  Q 949.00 512.79 961.12 518.87
  Q 969.28 522.95 972.07 523.27
  C 999.20 526.31 993.49 456.74 991.60 443.00
  A 0.85 0.85 0.0 0 1 993.25 442.61
  L 1002.31 468.85
  Z"
/>
<ellipse fill="#ffffff" cx="0.00" cy="0.00" transform="translate(725.26,459.83) rotate(-33.9)" rx="11.62" ry="8.98"/>
<path fill="#86aea0" d="
  M 805.13 453.93
  Q 815.02 470.39 818.86 489.17
  Q 813.24 471.18 805.13 453.93
  Z"
/>
<path fill="#ffffff" d="
  M 748.84 455.29
  Q 749.12 455.18 749.36 455.28
  Q 749.54 455.36 749.68 455.63
  C 764.93 486.55 717.99 508.76 707.10 476.16
  Q 707.03 475.95 707.53 475.68
  C 727.62 485.93 745.59 477.63 748.84 455.29
  Z"
/>
<path fill="#ffffff" d="
  M 598.79 466.22
  C 601.74 466.46 603.61 467.91 603.58 471.13
  Q 603.41 487.80 602.46 505.13
  Q 594.43 486.05 598.79 466.22
  Z"
/>
<path fill="#62ddd5" d="
  M 1002.31 468.85
  C 1021.83 520.04 1018.49 576.81 987.21 622.25
  C 928.15 708.02 834.65 751.26 730.91 721.86
  C 695.43 711.80 666.50 690.96 650.68 657.07
  Q 650.46 645.64 645.99 635.32
  C 644.77 632.52 644.94 630.37 647.79 629.02
  Q 703.73 602.52 765.76 600.30
  C 767.71 600.23 770.36 601.10 772.00 602.66
  Q 779.08 609.38 788.02 614.07
  Q 806.26 641.73 793.57 674.11
  C 791.26 680.00 781.22 693.06 794.77 694.23
  Q 791.69 699.00 795.37 703.21
  C 798.82 707.16 804.72 703.01 806.67 699.41
  Q 820.26 674.35 815.82 645.95
  Q 814.68 638.68 811.16 631.74
  Q 811.64 629.18 808.85 626.61
  Q 801.60 612.00 792.57 598.23
  Q 796.54 601.22 801.39 601.36
  C 813.61 601.71 825.35 604.54 837.98 608.54
  Q 839.04 608.88 839.31 607.49
  Q 840.12 607.43 840.45 608.03
  Q 854.05 632.57 848.12 660.05
  C 846.54 667.37 851.29 667.30 856.62 668.14
  Q 851.08 673.41 857.71 678.22
  A 1.26 1.25 -26.8 0 0 858.45 678.46
  C 871.54 678.59 867.52 647.26 867.26 639.57
  C 866.99 631.67 865.60 626.93 861.12 621.10
  Q 860.37 620.11 859.20 621.77
  L 855.24 611.29
  Q 857.56 612.80 861.56 614.44
  Q 880.07 621.99 895.51 627.05
  Q 895.43 635.42 896.58 640.16
  Q 897.56 644.22 901.71 643.78
  C 899.18 648.22 902.27 655.64 908.03 654.64
  C 915.74 653.30 915.26 643.27 914.78 637.45
  A 0.93 0.92 -67.0 0 0 914.57 636.92
  Q 912.89 634.81 914.99 632.87
  Q 915.38 632.50 915.91 632.58
  Q 918.71 633.03 923.74 634.31
  Q 931.52 636.29 940.31 635.40
  C 981.43 631.26 983.75 584.38 967.46 556.61
  Q 967.25 556.26 966.85 556.25
  Q 966.65 556.25 966.46 556.26
  Q 966.48 555.35 966.19 554.81
  Q 962.04 547.31 947.54 521.68
  C 954.75 522.43 964.02 527.54 969.75 530.44
  C 990.01 540.70 997.85 517.93 998.53 503.24
  Q 999.34 486.08 1002.31 468.85
  Z
  M 707.57 682.41
  L 707.27 682.90
  Q 707.06 683.23 707.24 683.57
  C 721.81 711.91 765.78 684.34 746.05 658.37
  Q 746.12 658.23 745.63 657.06
  C 731.26 623.17 683.18 652.71 705.40 680.70
  Q 706.38 681.93 707.57 682.41
  Z"
/>
<path fill="#ffffff" d="
  M 551.85 490.26
  C 558.60 489.55 557.44 502.46 556.25 505.71
  C 551.11 502.41 551.04 495.49 551.85 490.26
  Z"
/>
<path fill="#86aea0" d="
  M 927.04 493.59
  Q 935.91 494.29 944.38 498.22
  L 927.04 493.59
  Z"
/>
<path fill="#86aea0" d="
  M 821.52 501.18
  Q 822.76 503.62 822.11 507.10
  Q 820.68 504.46 821.52 501.18
  Z"
/>
<path fill="#86aea0" d="
  M 1024.71 513.32
  Q 1025.67 516.17 1025.14 519.60
  Q 1023.52 516.30 1024.71 513.32
  Z"
/>
<path fill="#86aea0" d="
  M 1025.53 523.60
  Q 1026.66 534.92 1025.56 546.08
  Q 1024.79 534.91 1025.53 523.60
  Z"
/>
<path fill="#62ddd5" d="
  M 602.23 544.03
  Q 589.30 550.52 574.55 551.35
  Q 578.30 546.95 581.21 540.96
  C 583.00 537.26 585.73 537.27 589.24 538.91
  Q 595.57 541.86 602.23 544.03
  Z"
/>
<path fill="#86aea0" d="
  M 634.37 542.98
  L 629.86 542.91
  Q 631.87 540.86 634.37 542.98
  Z"
/>
<path fill="#86aea0" d="
  M 426.52 544.36
  Q 426.63 549.37 424.15 554.09
  L 426.52 544.36
  Z"
/>
<path fill="#86aea0" d="
  M 1025.18 552.65
  Q 1025.65 555.24 1024.60 557.15
  Q 1023.45 554.07 1025.18 552.65
  Z"
/>
<path fill="#ffffff" d="
  M 966.46 556.26
  Q 966.65 556.25 966.85 556.25
  Q 967.25 556.26 967.46 556.61
  C 983.75 584.38 981.43 631.26 940.31 635.40
  Q 931.52 636.29 923.74 634.31
  Q 918.71 633.03 915.91 632.58
  Q 915.38 632.50 914.99 632.87
  Q 912.89 634.81 914.57 636.92
  A 0.93 0.92 -67.0 0 1 914.78 637.45
  C 915.26 643.27 915.74 653.30 908.03 654.64
  C 902.27 655.64 899.18 648.22 901.71 643.78
  L 904.66 643.23
  Q 905.53 646.63 912.28 645.89
  Q 912.77 645.83 912.86 645.35
  Q 913.97 639.28 913.03 631.91
  Q 912.65 628.90 909.76 628.78
  A 0.73 0.72 3.7 0 0 909.00 629.44
  L 908.18 638.29
  L 907.35 622.42
  A 0.84 0.84 0.0 0 1 908.35 621.55
  C 944.69 628.85 975.66 617.51 969.23 573.97
  Q 967.92 565.10 966.46 556.26
  Z"
/>
<path fill="#86aea0" d="
  M 719.04 579.25
  Q 713.10 581.49 706.89 581.64
  Q 712.93 579.61 719.04 579.25
  Z"
/>
<rect fill="#86aea0" x="-6.49" y="-0.38" transform="translate(863.52,584.69) rotate(-13.7)" width="12.98" height="0.76" rx="0.26"/>
<path fill="#86aea0" d="
  M 691.70 585.06
  Q 684.05 588.16 675.89 589.72
  Q 683.30 586.42 691.70 585.06
  Z"
/>
<path fill="#ffffff" d="
  M 788.02 614.07
  Q 779.08 609.38 772.00 602.66
  C 770.36 601.10 767.71 600.23 765.76 600.30
  Q 703.73 602.52 647.79 629.02
  C 644.94 630.37 644.77 632.52 645.99 635.32
  Q 650.46 645.64 650.68 657.07
  Q 641.13 640.43 638.90 621.44
  A 2.26 2.26 0.0 0 1 640.16 619.14
  Q 695.56 592.45 757.30 589.73
  C 760.82 589.57 763.03 588.77 766.15 591.07
  Q 778.72 600.35 788.02 614.07
  Z"
/>
<path fill="#86aea0" d="
  M 787.02 590.22
  Q 786.64 591.14 786.83 591.85
  Q 785.83 591.56 785.44 590.64
  Q 785.20 590.07 785.82 590.00
  Q 786.29 589.95 787.02 590.22
  Z"
/>
<path fill="#86aea0" d="
  M 667.64 592.26
  Q 665.97 594.35 663.85 593.63
  L 667.64 592.26
  Z"
/>
<path fill="#ffffff" d="
  M 496.04 594.56
  L 512.49 614.04
  A 0.46 0.46 0.0 0 1 511.95 614.76
  L 499.23 609.27
  L 496.04 594.56
  Z"
/>
<path fill="#86aea0" d="
  M 652.67 598.05
  Q 646.69 601.13 634.43 606.41
  Q 625.50 610.26 625.33 618.93
  C 621.23 608.78 643.12 601.56 652.67 598.05
  Z"
/>
<path fill="#86aea0" d="
  M 421.77 605.93
  Q 423.61 606.89 422.37 610.18
  Q 421.40 608.43 421.77 605.93
  Z"
/>
<path fill="#86aea0" d="
  M 422.82 611.70
  Q 424.40 614.13 423.24 616.14
  Q 422.41 614.25 422.82 611.70
  Z"
/>
<path fill="#86aea0" d="
  M 423.60 617.97
  Q 425.23 618.60 424.22 622.35
  Q 423.13 620.16 423.60 617.97
  Z"
/>
<path fill="#86aea0" d="
  M 424.25 623.62
  Q 426.57 627.63 426.05 631.79
  L 424.25 623.62
  Z"
/>
<path fill="#ffffff" d="
  M 808.85 626.61
  Q 811.64 629.18 811.16 631.74
  L 810.67 642.95
  L 808.85 626.61
  Z"
/>
<path fill="#86aea0" d="
  M 466.77 631.32
  Q 465.42 650.72 467.05 670.23
  Q 466.13 667.34 465.72 663.06
  Q 464.09 646.29 466.77 631.32
  Z"
/>
<path fill="#213d4b" d="
  M 746.05 658.37
  C 742.72 680.10 729.14 689.90 707.57 682.41
  Q 706.38 681.93 705.40 680.70
  C 683.18 652.71 731.26 623.17 745.63 657.06
  Q 746.12 658.23 746.05 658.37
  Z
  M 731.9785 656.8433
  A 11.55 8.78 -32.8 0 0 717.5138 655.7198
  A 11.55 8.78 -32.8 0 0 712.5615 669.3567
  A 11.55 8.78 -32.8 0 0 727.0262 670.4802
  A 11.55 8.78 -32.8 0 0 731.9785 656.8433
  Z"
/>
<ellipse fill="#ffffff" cx="0.00" cy="0.00" transform="translate(722.27,663.10) rotate(-32.8)" rx="11.55" ry="8.78"/>
<path fill="#ffffff" d="
  M 746.05 658.37
  C 765.78 684.34 721.81 711.91 707.24 683.57
  Q 707.06 683.23 707.27 682.90
  L 707.57 682.41
  C 729.14 689.90 742.72 680.10 746.05 658.37
  Z"
/>
<path fill="#86aea0" d="
  M 470.50 695.30
  Q 472.62 702.17 471.67 708.61
  L 470.50 695.30
  Z"
/>
<path fill="#86aea0" d="
  M 852.66 748.67
  Q 852.58 761.68 855.67 774.76
  A 0.60 0.60 0.0 0 1 855.11 775.50
  C 831.34 776.71 805.57 769.34 787.20 753.72
  C 807.82 755.21 826.20 752.88 846.94 749.91
  Q 850.35 749.42 852.66 748.67
  Z"
/>
<path fill="#ffffff" d="
  M 515.68 912.06
  Q 515.18 917.66 515.49 921.26
  Q 516.71 935.47 516.73 949.75
  Q 516.73 952.28 516.42 953.84
  Q 516.08 955.48 514.43 955.69
  Q 505.56 956.81 496.61 955.81
  Q 496.02 955.74 496.02 955.15
  C 496.02 953.16 496.49 950.81 496.49 949.16
  Q 496.51 899.06 496.49 847.73
  A 0.37 0.36 -3.6 0 1 496.81 847.37
  Q 517.17 845.18 537.49 847.97
  C 554.03 850.23 567.24 859.80 567.73 878.08
  C 568.48 906.32 542.04 911.78 519.76 910.94
  Q 517.94 910.87 516.26 911.35
  Q 515.73 911.51 515.68 912.06
  Z
  M 515.26 868.52
  L 515.34 889.68
  A 3.25 3.25 0.0 0 0 518.60 892.92
  L 531.35 892.87
  A 17.68 12.08 -0.2 0 0 548.99 880.73
  L 548.97 877.23
  A 17.68 12.08 -0.2 0 0 531.25 865.21
  L 518.50 865.26
  A 3.25 3.25 0.0 0 0 515.26 868.52
  Z"
/>
<path fill="#ffffff" d="
  M 638.07 863.84
  A 1.40 1.39 -82.5 0 1 637.08 862.54
  L 636.75 849.67
  Q 636.68 847.01 639.33 847.01
  L 722.26 847.01
  Q 725.00 847.01 725.00 849.75
  L 725.00 863.22
  A 1.21 1.21 0.0 0 1 723.79 864.43
  L 692.97 864.54
  Q 691.00 864.55 691.00 866.52
  L 691.00 955.46
  Q 691.00 955.77 690.69 955.80
  Q 681.45 956.63 672.29 955.71
  A 1.89 1.89 0.0 0 1 670.60 953.82
  L 671.14 865.83
  Q 671.15 865.11 670.49 864.81
  Q 669.40 864.31 667.50 864.35
  Q 656.13 864.58 644.75 864.78
  Q 641.37 864.84 638.07 863.84
  Z"
/>
<path fill="#ffffff" d="
  M 906.44 885.70
  C 908.19 886.62 909.51 886.52 911.05 885.16
  Q 917.10 879.83 925.18 878.40
  C 952.08 873.62 956.42 898.98 958.46 919.03
  C 959.74 931.59 958.71 943.23 956.76 955.40
  Q 956.68 955.87 956.22 955.90
  Q 947.42 956.59 939.50 955.73
  Q 937.42 955.51 937.43 953.25
  Q 937.61 916.52 937.43 906.69
  C 937.18 892.83 920.70 891.88 912.63 899.07
  C 909.61 901.75 907.21 907.67 907.23 911.76
  Q 907.32 931.64 907.19 951.50
  Q 907.16 955.45 904.11 955.76
  Q 895.65 956.61 887.37 955.49
  A 0.73 0.72 -85.9 0 1 886.75 954.77
  L 886.75 848.49
  A 0.90 0.90 0.0 0 1 887.52 847.60
  Q 897.09 846.28 906.69 847.50
  A 0.65 0.64 -86.5 0 1 907.25 848.14
  Q 907.24 862.07 907.27 875.90
  C 907.27 878.85 906.44 881.71 905.98 884.80
  A 0.88 0.87 18.2 0 0 906.44 885.70
  Z"
/>
<path fill="#ffffff" d="
  M 747.84 926.41
  C 748.98 929.44 750.14 933.08 752.91 935.26
  C 763.44 943.53 773.01 939.85 783.67 934.52
  C 787.37 932.67 794.59 940.18 796.47 942.85
  A 0.98 0.96 -49.4 0 1 796.54 943.84
  Q 795.62 945.61 793.68 947.18
  C 777.26 960.47 750.11 961.68 736.11 944.07
  C 721.54 925.74 726.58 892.56 748.06 881.52
  C 759.90 875.44 773.85 876.51 785.06 883.67
  C 797.80 891.81 801.46 908.81 798.98 922.83
  A 0.72 0.71 -86.4 0 1 798.32 923.42
  C 782.82 924.39 766.35 923.77 749.62 923.82
  Q 746.87 923.83 747.84 926.41
  Z
  M 749.15 910.22
  L 781.05 910.78
  A 1.39 1.39 0.0 0 0 782.46 909.41
  L 782.47 909.05
  A 16.60 15.23 1.0 0 0 766.14 893.53
  L 764.66 893.51
  A 16.60 15.23 1.0 0 0 747.80 908.45
  L 747.79 908.81
  A 1.39 1.39 0.0 0 0 749.15 910.22
  Z"
/>
<path fill="#ffffff" d="
  M 838.89 957.04
  C 818.69 954.76 805.83 936.60 806.09 916.99
  C 806.42 893.11 826.96 871.95 852.22 879.01
  Q 865.45 882.71 873.58 894.97
  Q 874.87 896.92 875.19 898.97
  A 1.33 1.33 0.0 0 1 874.56 900.32
  Q 867.71 904.43 859.79 905.66
  A 0.95 0.94 -24.0 0 1 858.92 905.33
  Q 857.51 903.58 856.32 901.99
  C 850.49 894.20 840.77 891.93 832.82 897.73
  C 823.75 904.35 823.64 924.82 830.32 933.35
  C 834.03 938.10 840.17 941.47 846.17 940.42
  C 851.97 939.40 854.85 935.05 857.34 930.20
  A 2.18 2.17 -71.5 0 1 859.64 929.05
  Q 867.02 930.33 873.37 934.34
  Q 873.85 934.64 873.83 935.21
  Q 873.73 937.77 872.00 940.49
  C 864.51 952.24 852.83 958.62 838.89 957.04
  Z"
/>
<path fill="#ffffff" d="
  M 615.86 931.82
  Q 614.14 928.16 610.45 927.00
  C 595.76 922.35 575.26 918.40 577.04 899.50
  C 579.64 871.96 612.06 875.19 627.98 887.21
  C 629.81 888.59 631.30 890.30 632.27 892.24
  A 1.81 1.81 0.0 0 1 631.83 894.42
  Q 627.64 898.05 622.80 900.05
  C 617.11 902.42 608.08 887.67 598.63 893.03
  C 595.46 894.83 590.05 900.34 596.18 903.09
  C 611.94 910.17 628.45 909.53 633.20 930.04
  Q 633.97 933.38 633.20 935.86
  Q 627.61 953.94 608.77 956.86
  C 592.65 959.36 579.45 951.11 571.54 937.62
  Q 571.26 937.15 571.70 936.83
  Q 577.50 932.69 584.30 930.54
  A 2.08 2.08 0.0 0 1 586.74 931.50
  C 592.79 942.08 610.32 947.38 615.90 932.80
  Q 616.09 932.30 615.86 931.82
  Z"
/>
</svg>
